<?xml version="1.0" standalone="no"?>
<!DOCTYPE svg PUBLIC "-//W3C//DTD SVG 20010904//EN"
 "http://www.w3.org/TR/2001/REC-SVG-20010904/DTD/svg10.dtd">
<svg version="1.0" xmlns="http://www.w3.org/2000/svg"
 width="500.000000pt" height="500.000000pt" viewBox="0 0 500.000000 500.000000"
 preserveAspectRatio="xMidYMid meet">

<g transform="translate(0.000000,500.000000) scale(0.100000,-0.100000)"
fill="#000000" stroke="none">
<path d="M3510 4798 c0 -62 -5 -439 -10 -838 -7 -495 -7 -726 0 -728 5 -2 10
-12 10 -23 0 -15 -5 -18 -22 -15 -13 3 -81 8 -153 11 -222 10 -265 15 -265 34
0 9 4 21 9 27 5 5 12 352 17 822 l7 812 -72 0 -71 0 0 -814 c0 -533 3 -817 10
-821 6 -3 10 -13 10 -22 0 -17 -22 -17 -332 4 -94 6 -98 7 -98 29 0 13 5 24
10 24 12 0 14 947 3 1343 l-6 247 -65 0 -65 0 7 -791 c5 -560 11 -797 19 -810
6 -10 8 -21 5 -24 -9 -10 -391 16 -403 26 -6 6 -5 16 3 29 14 23 16 465 5
1148 l-6 422 -65 0 -64 0 7 -777 c5 -632 9 -780 20 -789 8 -6 10 -16 6 -23 -7
-10 -39 -11 -166 -2 -87 6 -173 11 -192 11 -25 0 -33 4 -33 18 0 10 4 22 10
28 9 9 -5 1362 -16 1472 l-5 52 -65 0 -65 0 6 -192 c3 -106 10 -447 16 -758 6
-326 14 -569 20 -575 26 -26 8 -35 -68 -35 -81 0 -175 -15 -325 -52 -67 -16
-94 -28 -115 -50 l-28 -30 2 -131 c5 -337 54 -2237 59 -2273 4 -32 24 -64 100
-161 54 -69 107 -126 122 -132 25 -10 419 -78 1823 -313 323 -54 556 -88 571
-85 29 8 204 147 375 298 88 78 114 108 123 137 5 20 10 100 10 178 0 78 7
420 15 760 41 1766 39 1603 18 1633 -40 53 -64 59 -278 71 -251 13 -265 16
-265 40 0 10 4 21 9 24 4 3 11 229 15 503 3 274 9 650 12 836 l7 337 -72 0
-71 0 0 -112z"/>
</g>
</svg>
