<?xml version="1.0" encoding="UTF-8" standalone="no"?>
<svg
   height="960"
   viewBox="0 0 960 960"
   width="960"
   version="1.1"
   id="svg142"
   sodipodi:docname="icon.svg"
   inkscape:version="1.2.1 (9c6d41e410, 2022-07-14)"
   xmlns:inkscape="http://www.inkscape.org/namespaces/inkscape"
   xmlns:sodipodi="http://sodipodi.sourceforge.net/DTD/sodipodi-0.dtd"
   xmlns="http://www.w3.org/2000/svg"
   xmlns:svg="http://www.w3.org/2000/svg">
  <defs
     id="defs146" />
  <sodipodi:namedview
     id="namedview144"
     pagecolor="#ffffff"
     bordercolor="#666666"
     borderopacity="1.0"
     inkscape:showpageshadow="2"
     inkscape:pageopacity="0.0"
     inkscape:pagecheckerboard="0"
     inkscape:deskcolor="#d1d1d1"
     showgrid="false"
     inkscape:zoom="1.2145833"
     inkscape:cx="440.89194"
     inkscape:cy="480"
     inkscape:window-width="2560"
     inkscape:window-height="1369"
     inkscape:window-x="-8"
     inkscape:window-y="-8"
     inkscape:window-maximized="1"
     inkscape:current-layer="svg142" />
  <path
     d="m 509.25903,13.066181 0.74847,0.0397 1.6586,0.112282 167.50372,12.293981 c 5.38466,0.43646 10.28416,1.277617 15.15081,2.812274 7.80931,2.462603 14.94654,6.569451 20.92644,12.84522 6.16882,6.474039 9.96059,14.07172 11.84576,22.167378 0.13388,0.574945 0.25689,1.143003 0.36974,1.705971 l 0.16173,0.840857 0.0933,0.536396 0.6395,-0.103705 c 2.45086,-0.386147 4.93781,-0.630614 7.46104,-0.75028 l 1.0836,-0.04369 0.66904,-0.01942 0.73534,-0.01622 1.40326,-0.0179 1.00844,-7.3e-5 0.98498,0.01199 0.64997,0.01496 0.97444,0.03332 0.98524,0.04686 0.66918,0.03903 0.68349,0.04546 1.06041,0.08059 1.11403,0.09597 1.1805,0.111902 1.6996,0.174943 2.36916,0.26189 5.35743,0.621603 1.83312,0.196854 1.93846,0.182082 c 6.32486,0.617604 12.12591,1.858697 17.80597,4.121977 8.38984,3.34302 15.75199,8.704685 21.3407,16.165836 5.03229,6.718302 7.84533,13.979841 9.19366,21.633991 0.73471,4.17076 0.98126,7.93126 1.00772,12.41964 l 0.002,0.85037 -7.3e-4,24.70003 0.224,0.17277 c 9.51874,7.43207 16.1193,18.4649 17.94747,32.25911 l 0.0822,0.64862 0.0123,0.1145 16.64807,0.69204 16.34288,0.65033 11.4325,0.40991 3.97644,0.11267 c 6.59018,0.21406 12.63596,1.09654 18.73201,3.10914 9.1517,3.02141 17.29151,8.35768 23.5912,16.08828 5.66989,6.95776 9.0553,14.78832 10.85022,23.27327 1.1447,5.41126 1.62,10.9349 1.66466,17.14874 l 0.004,0.98695 -0.19558,176.95998 -0.0859,114.55133 -0.0202,90.06995 0.0331,55.88769 0.0439,26.93487 0.0761,23.08028 0.0451,7.13793 0.0409,3.87984 0.0194,1.14467 0.0504,1.8568 c 0.7811,34.98364 -18.93782,57.53259 -49.23209,60.84197 l -0.92123,0.0944 -1.38621,0.12114 -1.01851,0.0758 -1.3751,0.0851 -1.99984,0.0999 -46.18364,2.439 2.6e-4,70.52169 -0.009,2.45908 -0.01,1.13802 -0.014,1.08556 -0.0298,1.54402 -0.0263,0.98248 -0.0321,0.95248 -0.0382,0.9289 -0.0448,0.91173 -0.0518,0.90097 -0.0593,0.89664 -0.0672,0.89871 -0.0755,0.90721 c -0.60534,6.92609 -1.89415,13.22653 -4.49811,19.59957 -7.66092,18.74969 -24.00517,30.21336 -44.21578,32.63029 l -0.61362,0.0705 -1.54822,0.15921 -2.49462,0.23339 -3.22403,0.28392 -7.18795,0.60194 -12.75253,1.02277 -24.39841,1.89305 -32.65687,2.47894 -44.27781,3.31422 -32.4335,2.40374 -0.15352,0.0905 c -6.57873,3.7823 -13.55007,6.57511 -21.47529,7.86727 l -0.82327,0.1283 -0.80333,0.11385 c -1.23065,0.1659 -2.47196,0.29101 -3.72415,0.37265 l -0.94119,0.053 -0.45357,0.0233 -3.53413,0.21611 -13.70595,0.93159 -34.3489,2.47104 -18.23751,1.36736 -8.31083,0.65218 -2.90856,0.24187 -1.43681,0.10905 -1.41766,0.0932 -1.39902,0.0771 -1.38087,0.0608 c -19.20746,0.73609 -33.22444,-3.3748 -48.16086,-14.79765 -10.75966,-8.22861 -18.55237,-17.93172 -22.41168,-28.9066 l -0.21035,-0.61102 -0.12455,-0.37784 -0.41125,-0.31309 c -9.49396,-7.33582 -15.20268,-18.5604 -15.52915,-30.57193 l -0.0111,-0.54651 v -246.7393 c 0,-11.54639 4.86784,-21.8721 12.59775,-29.13964 l 0.38245,-0.35495 0.44532,-0.40266 -0.975,-242.795 -0.29718,-0.28336 c -7.22165,-7.00455 -11.80942,-16.70926 -12.13481,-27.48563 l -0.0132,-0.56816 -0.005,-0.66147 V 83.001195 c 0,-13.245388 6.5557,-25.619819 17.48566,-33.062146 l 0.42805,-0.287456 17.42023,-11.556345 14.85781,-9.917273 4.51721,-3.063715 2.00085,-1.416076 1.15616,-0.805477 0.80694,-0.546534 1.10629,-0.725329 c 2.59379,-1.671628 5.18729,-3.11338 8.14368,-4.401912 7.40373,-3.226878 15.06903,-4.52418 23.0431,-4.152751 z m 5.99954,879.529059 2.1e-4,31.42746 c 0,2.60684 -0.42155,5.00356 -1.20647,7.13393 l 0.22597,-0.0185 6.47677,-0.4926 v -34.847 z M 501.2978,54.622414 l -0.54267,-2.16e-4 c -0.61691,0.355207 -1.25465,0.768652 -1.94337,1.24009 l -0.41959,0.28982 -0.72765,0.511958 -1.05394,0.75019 -0.59031,0.412092 -3.86649,2.634042 -5.1801,3.478918 -6.46492,4.315151 -22.21571,14.746736 V 347.33862 h 12.33446 l 1.21687,302.87999 -13.55133,-1.18912 v 246.20758 l 11.1318,7.91451 c 0.54613,0.25688 1.07663,0.56706 1.58456,0.93167 l 15.15725,10.91377 2.93796,2.1205 c 1.9926,1.43857 3.94579,2.58864 5.70594,3.38228 l 0.44801,0.19544 2.1e-4,-32.17512 c 0,-3.39688 0.12813,-5.97851 0.45338,-8.15165 l 0.056,-0.35848 c 0.61541,-3.77194 1.86605,-6.79994 4.71331,-9.23108 3.59135,-3.06646 7.84124,-3.46067 11.92482,-2.25346 1.86864,0.55241 3.58175,1.37121 5.88245,2.68117 l 33.44129,19.50165 8.8405,5.12321 8.24885,4.7508 6.17015,3.52716 4.47052,2.53426 2.68132,1.50755 2.43553,1.35799 2.18415,1.20504 2.22294,1.208 0.28848,0.15488 c 2.29572,1.23039 4.25435,2.06088 5.85535,2.54119 l 0.39971,0.11389 7.8e-4,-155.73434 c 0,-6.72814 1.18504,-11.46884 5.47954,-14.96628 l 0.28451,-0.22634 c 2.76898,-2.15222 6.02049,-2.94951 9.38093,-2.7256 1.98654,0.13236 3.94367,0.60449 6.11577,1.37581 l 3.94776,1.4309 4.6266,1.63886 9.69888,3.38947 13.6182,4.706 13.0225,4.45376 6.41657,2.17388 6.23038,2.09021 5.47066,1.80388 1.35287,0.43691 1.42793,0.45295 1.09712,0.33693 0.0202,-0.51982 0.0204,-0.80774 0.012,-0.87764 0.004,-0.87951 -10e-4,-541.09729 -4.9015,1.45683 -5.76215,1.73415 -13.91594,4.23194 -10.04152,3.08007 -12.10403,3.74283 -7.12921,2.22682 -4.82091,1.52299 -3.38648,1.08678 -1.85751,0.60956 -1.10782,0.37503 -0.59219,0.21007 -0.1631,0.0609 c -5.45075,2.07498 -9.78081,2.73066 -14.21918,1.00293 -5.99879,-2.33514 -8.47356,-7.57114 -8.56157,-13.75358 l -0.002,-0.34443 -4.5e-4,-53.99787 -0.1556,0.0428 c -7.74767,1.99354 -15.63106,-2.80539 -15.81766,-12.44286 l -0.003,-0.35045 -10e-4,-61.22666 -0.01,-0.577475 -0.0196,-0.51891 c -0.0243,-0.49032 -0.0625,-0.89597 -0.11285,-1.226423 l -0.0246,-0.14404 -0.10685,-0.04891 c -0.24684,-0.109565 -0.57206,-0.232724 -0.98335,-0.363526 l -0.21285,-0.06601 c -2.98393,-0.902829 -7.71999,0.262746 -12.09239,2.351999 l -19.60633,9.676335 -10.2904,5.12092 -5.25745,2.65772 -1.5425,0.80314 -0.2172,0.11643 c -2.01772,1.08958 -3.79848,1.85588 -5.57586,2.31494 -3.0147,0.77863 -6.05698,0.70778 -9.04373,-0.82868 -3.24675,-1.67022 -5.14193,-4.43955 -6.00784,-7.58777 -0.41286,-1.50106 -0.56974,-2.95341 -0.59485,-4.63458 l -0.004,-0.51149 -0.001,-50.60937 -0.0102,-0.721301 -0.0211,-0.67885 -0.0349,-0.0038 c -1.39711,-0.139796 -3.02133,-0.259655 -4.5289,-0.316434 l -0.37426,-0.01286 -0.83748,-0.0194 z m 28.45669,852.395506 4.2e-4,0.49574 c 0.0787,4.18377 2.05884,7.97048 5.5153,9.89004 4.91368,2.72883 11.43846,0.91997 15.35068,-4.22772 l -6.87594,-3.9766 -12.87635,-7.50473 c -0.72313,1.76265 -1.08432,3.57226 -1.11411,5.32327 z m 85.77308,-143.75768 4.8e-4,153.99529 7.228,-0.537 1.8202,-76.72903 157.81064,-10.79505 9e-5,74.33362 c 4.1867,-1.75047 6.33151,-4.93807 7.42965,-9.30931 l 0.0762,-0.31237 0.13996,-0.62584 c 0.0593,-0.28153 0.11491,-0.56755 0.16696,-0.858 l 0.0755,-0.439 0.10366,-0.67085 0.0706,-0.51279 0.0647,-0.52099 0.0776,-0.7073 0.0179,-0.17907 0.0173,-0.17996 0.0637,-0.72871 0.0552,-0.7428 0.0126,-0.18788 0.0121,-0.18875 0.0436,-0.76363 0.0367,-0.77733 0.0303,-0.79087 0.0348,-1.21137 0.0238,-1.24099 0.0149,-1.27008 0.008,-1.29866 0.002,-93.31499 -103.75998,-0.52342 c -0.49716,-0.003 -0.98565,-0.0413 -1.46301,-0.11373 -2.22898,-0.1364 -4.60282,-0.60749 -7.26552,-1.37843 l -0.79921,-0.2376 -1.39641,-0.43389 -2.05565,-0.65821 -4.04806,-1.32679 -8.85688,-2.96395 -12.69387,-4.31509 -12.26452,-4.21469 -10.39116,-3.6032 -7.67909,-2.68914 z m 21.78365,111.90785 c -320.0371,-574.66323 -160.01855,-287.33162 0,0 z m 52.42874,-2.96767 c -5.16491,9.31774 -2.57309,20.62881 5.78898,25.26398 8.36207,4.63517 19.32785,0.8392 24.49276,-8.47853 5.1649,-9.31774 2.57309,-20.62881 -5.78898,-25.26398 -8.36208,-4.63517 -19.32786,-0.8392 -24.49276,8.47853 z m 51.43951,-3.95688 c -5.1649,9.31773 -2.57309,20.6288 5.78898,25.26397 8.36207,4.63518 19.32786,0.83921 24.49276,-8.47853 5.16491,-9.31774 2.57309,-20.6288 -5.78898,-25.26398 -8.36207,-4.63517 -19.32785,-0.8392 -24.49276,8.47854 z m -37.4322,-647.92308 c 0.004,0.2194 0.006,0.44066 0.008,0.66377 v 541.81259 l -0.008,0.99879 -0.0152,0.96536 c -0.006,0.31634 -0.0144,0.62729 -0.0239,0.93304 l -0.0216,0.56152 148.673,0.751 7.81481,-0.42037 16.22471,-0.83016 c 0.48621,-0.025 0.97189,-0.0529 1.45548,-0.0865 l 0.72362,-0.055 0.53996,-0.0482 0.46206,-0.047 0.4596,-0.0528 0.45683,-0.0591 0.45373,-0.066 0.45033,-0.0735 0.44662,-0.0816 0.11104,-0.0217 0.11078,-0.0223 0.44046,-0.0948 0.43597,-0.1043 0.10825,-0.0276 0.10795,-0.0283 0.42863,-0.1197 0.10635,-0.0316 0.10601,-0.0323 0.42061,-0.13641 0.10426,-0.0359 0.1039,-0.0367 0.41187,-0.15444 0.10201,-0.0406 0.10161,-0.0414 0.40243,-0.17379 c 4.65842,-2.10671 7.95109,-6.99755 7.64114,-18.85145 l -0.015,-0.49796 -0.006,-0.20572 -0.019,-0.77981 -0.03,-1.83124 -0.0491,-4.9077 -0.06,-10.51999 -0.0479,-14.22752 -0.0761,-53.72368 -0.0142,-53.64808 0.008,-40.45253 0.056,-94.92496 0.23742,-227.0406 -10e-4,-0.23309 -0.002,-0.23142 -0.0142,-0.90896 -0.005,-0.2231 -0.006,-0.22145 -0.0289,-0.86942 -0.039,-0.84349 -0.0113,-0.20686 -0.012,-0.20527 -0.0546,-0.80523 -0.0153,-0.19737 -0.016,-0.19581 -0.0707,-0.76772 -0.0818,-0.74315 c -0.93127,-7.78469 -3.78927,-11.44644 -9.90094,-12.83401 l -0.31903,-0.0698 -0.59412,-0.11644 -0.61363,-0.10361 c -0.54552,-0.0851 -1.11373,-0.15592 -1.70535,-0.21337 l -0.59946,-0.0531 -0.70442,-0.05 -0.17935,-0.0108 -0.18066,-0.0101 -0.73577,-0.0337 -0.37583,-0.0129 -0.38116,-0.0103 -3.16478,-0.0893 -2.18036,-0.0741 z m 112.18804,369.22033 c 19.83188,2.08441 34.1033,20.95223 31.87612,42.14245 -2.22718,21.19023 -20.10958,36.67855 -39.94146,34.59413 -19.83187,-2.08441 -34.1033,-20.95223 -31.87612,-42.14246 2.22719,-21.19022 20.10959,-36.67854 39.94146,-34.59412 z M 855.93849,344.0811 c 7.33508,0.77095 12.61006,7.78264 11.78201,15.66106 -0.82806,7.87841 -7.44558,13.64016 -14.78066,12.86921 -7.33508,-0.77095 -12.61006,-7.78264 -11.78201,-15.66106 0.82806,-7.87842 7.44558,-13.64016 14.78066,-12.86921 z m 0,-45.50419 c 7.33508,0.77095 12.61006,7.78265 11.78201,15.66106 -0.82806,7.87842 -7.44558,13.64016 -14.78066,12.86921 -7.33508,-0.77095 -12.61006,-7.78264 -11.78201,-15.66106 0.82806,-7.87841 7.44558,-13.64015 14.78066,-12.86921 z m 0,-45.50418 c 7.33508,0.77094 12.61006,7.78264 11.78201,15.66106 -0.82806,7.87841 -7.44558,13.64015 -14.78066,12.86921 -7.33508,-0.77095 -12.61006,-7.78265 -11.78201,-15.66106 0.82806,-7.87842 7.44558,-13.64016 14.78066,-12.86921 z m -240.75144,-80.5192 5.2e-4,48.81271 3.6028,-1.15907 5.39069,-1.70636 9.2345,-2.88467 15.07359,-4.65211 11.0254,-3.36989 12.30499,-3.7223 5.21865,-1.55578 3.0309,-0.88625 1.26147,-0.35795 1.36551,-0.37267 0.86866,-0.22014 0.52823,-0.1226 c 0.171,-0.0379 0.33763,-0.0731 0.50193,-0.1058 l 0.48801,-0.0912 c 0.16171,-0.0282 0.32316,-0.0543 0.48641,-0.0788 l 0.49719,-0.0685 0.5203,-0.0604 c 1.77999,-0.18974 3.5204,-0.13616 5.20789,0.23794 l 98.45636,1.06983 8.9e-4,-13.62003 -0.003,-0.36094 c -0.12707,-7.97696 -4.49322,-10.47066 -10.84468,-10.54333 l -0.29006,-0.002 h -7.54605 l -2.5e-4,-0.65706 z m -15.979,-72.206 0.003,0.41892 -3.6e-4,51.08879 0.2647,-0.0163 c 0.3032,-0.0154 0.60937,-0.0232 0.91868,-0.023 l 0.46635,0.006 c 1.2406,0.0327 2.4117,0.19711 3.50884,0.48254 l 167.19891,3.76679 2.5e-4,-33.49332 -0.005,-0.9191 -0.0149,-0.88826 -0.0272,-0.85771 -0.0259,-0.55497 -0.0328,-0.54159 -0.0403,-0.52831 -0.0113,-0.13001 -0.0118,-0.12919 -0.0526,-0.50853 -0.0145,-0.12509 -0.0151,-0.12427 -0.0662,-0.48895 -0.076,-0.476 -0.0206,-0.11699 -0.0213,-0.11618 -0.0918,-0.45673 c -0.74129,-3.42971 -2.46011,-5.7509 -6.30285,-7.13044 l -0.33461,-0.11594 -0.53313,-0.16873 c -0.85755,-0.25672 -1.80906,-0.47386 -2.8646,-0.65289 l -0.53649,-0.0864 -0.70832,-0.10078 c -0.45173,-0.0598 -0.92053,-0.11367 -1.40702,-0.16169 l -0.49241,-0.0461 -0.55972,-0.0508 -1.11481,-0.10835 -1.6598,-0.17581 -1.09759,-0.12343 -4.83727,-0.56524 -1.57057,-0.17309 -1.03408,-0.1059 -1.02318,-0.0962 -1.01182,-0.0847 -1,-0.0714 -0.98771,-0.0563 c -5.39782,-0.26508 -10.21761,0.23591 -14.11609,2.84856 l -0.018,0.006 -0.0331,0.005 -0.11148,0.007 -0.21656,0.001 -1.01779,-0.0317 -0.25674,-0.0119 c -1.34151,0.57624 -2.82844,0.86583 -4.37798,0.79708 l -0.27946,-0.0162 z M 527.47123,54.470497 c 0.0186,0.559369 0.0298,1.135102 0.034,1.728145 l 0.002,0.562981 -6.9e-4,39.657619 2.94148,-1.463711 v -40.267 z m 153.22982,11.581034 v 20.106 l 7.882,0.567 4e-4,-9.116822 -0.003,-0.548171 -0.0158,-0.794829 -0.019,-0.511824 -0.0266,-0.497555 -0.0346,-0.48344 -0.0433,-0.469479 -0.0526,-0.455672 -0.0147,-0.111778 -0.0153,-0.110928 -0.0676,-0.435249 -0.0783,-0.421827 -0.0896,-0.408558 c -0.72707,-3.061341 -2.48915,-4.98173 -6.4492,-6.067186 l -0.34485,-0.091 -0.54952,-0.131574 z m -41.78816,11.688932 c -0.50308,1.783019 -0.7132,3.593951 -0.64467,5.364168 l 27.46948,1.976771 c 2.04724,-8.203545 -2.14858,-16.325791 -9.29429,-18.408138 -7.26371,-2.116735 -15.17482,2.718187 -17.53052,11.067199 z m -46,-3 c -0.56176,1.990969 -0.75882,4.017515 -0.60906,5.98558 1.23472,-0.469639 2.58069,-0.698862 3.97754,-0.63689 l 0.27946,0.01625 23.24971,1.672793 c 1.87055,-8.099589 -2.30947,-16.048246 -9.36713,-18.104934 -7.26371,-2.116735 -15.17482,2.718187 -17.53052,11.067199 z"
     id="path140"
     sodipodi:nodetypes="ccccsssccccccccccccccccccccccccssscccccccccccsssccccccccccccccccccccccccccccccccsccccccccccccccccccccccccccccsccccccsccccccccscccccccccscccccccccccccccccccccccccccccccccssccccccccccccccccscccccccccccccccccccccccccccccsccccccccccccccccccccsssccccccccccccscccccccccccccccccccccccccccccccccccccccccccccccssssssscssscscccccccccccccccccccccccccccccccccccccccccccccccccccccccccccccccccccccccccccsssssssssssssssscsssccccccccccccccccccccccccccccccccccccccccccccccccccccccccccccccccccccccccccccccccccccccccccsccccccccccccccccccsscsssccccsssc" />
  <path
     d="m 290.91318,279.12392 c -141.0867,0 -255.7029,114.61617 -255.7029,255.70286 h 34.2805 c 0.4472,-122.42617 99.4583,-221.39253 221.4373,-221.39253 v -34.31033 z m 0,68.17352 c -103.3185,0 -187.5592,84.21084 -187.5592,187.52934 h 34.2954 c 0.4472,-84.65798 69.0529,-153.23392 153.2638,-153.23392 z m 0,85.09021 a 101.90257,101.90257 0 0 0 -102.0218,102.00689 101.93237,101.93237 0 0 0 102.0218,102.02181 101.90257,101.90257 0 0 0 102.0069,-102.02181 101.87276,101.87276 0 0 0 -102.0069,-102.00689 z m -33.8781,47.30711 h 85.5224 l -45.5782,72.48094 h 45.5782 l -20.8366,32.13426 h -86.372 l 46.86,-73.36031 h -44.7137 l 19.525,-31.25489 z"
     id="path596"
     style="stroke-width:14.9046" />
  <text
     xml:space="preserve"
     style="font-style:normal;font-variant:normal;font-weight:normal;font-stretch:normal;font-size:50.403px;line-height:125%;font-family:ArrowsCustom;-inkscape-font-specification:ArrowsCustom;text-align:start;letter-spacing:0px;word-spacing:0px;writing-mode:lr-tb;text-anchor:start;fill:#000000;fill-opacity:1;stroke:none;stroke-width:1.6801px;stroke-linecap:butt;stroke-linejoin:miter;stroke-opacity:1"
     x="749.38702"
     y="760.94696"
     id="text618"
     transform="scale(1.0614588,0.94209968)"><tspan
       sodipodi:role="line"
       id="tspan616"
       x="749.38702"
       y="760.94696"
       style="stroke-width:1.6801px">S</tspan></text>
</svg>
