<?xml version="1.0" encoding="utf-8"?>
<!-- Svg Vector Icons : http://www.onlinewebfonts.com/icon -->
<!DOCTYPE svg PUBLIC "-//W3C//DTD SVG 1.1//EN" "http://www.w3.org/Graphics/SVG/1.1/DTD/svg11.dtd">
<svg version="1.1" xmlns="http://www.w3.org/2000/svg" xmlns:xlink="http://www.w3.org/1999/xlink" x="0px" y="0px" viewBox="0 0 1000 1000" enable-background="new 0 0 1000 1000" xml:space="preserve">
<metadata> Svg Vector Icons : http://www.onlinewebfonts.com/icon </metadata>
<g><g transform="translate(0.000000,511.000000) scale(0.100000,-0.100000)"><path d="M4463.3,4988c-665.1-76.2-1376.4-334.9-1923.7-699.8C1585.8,3650.9,906.8,2648.6,675.9,1533.1c-265.6-1288.6,80.8-2660.4,930.7-3671.9c219.4-258.7,448-473.4,720.5-676.7c323.3-237.9,369.5-261,480.4-247.1c131.6,18.5,200.9,99.3,200.9,237.9c0,122.4-20.8,145.5-323.3,360.3c-729.8,524.2-1260.9,1288.6-1475.7,2131.6c-122.4,485-157,1115.4-83.1,1575c203.2,1284,1002.3,2353.3,2170.8,2907.5c1157,549.6,2637.3,487.3,3713.5-157c288.7-175.5,482.7-323.3,729.8-561.2c769-741.3,1180.1-1711.3,1180.1-2789.8c0-769-235.6-1526.5-674.3-2168.5c-194-284.1-586.6-685.9-875.3-898.4c-376.4-274.8-378.7-277.1-378.7-401.8c0-92.4,11.5-117.8,76.2-175.5c117.8-103.9,212.5-92.4,422.6,50.8C8407.7-2321.3,9022-1446,9289.9-392.9c173.2,690.5,161.7,1556.5-34.6,2228.6c-214.8,741.3-558.9,1327.9-1103.9,1882.2c-709,720.5-1644.3,1170.9-2646.6,1272.5C5230,5018.1,4715,5015.7,4463.3,4988z"/><path d="M4613.4,3475.4c-1217.1-175.5-2122.3-1023.1-2383.3-2233.2c-32.3-140.9-41.6-291-41.6-593.5c2.3-358,9.2-431.9,62.4-646.6c175.5-699.8,561.2-1263.3,1133.9-1658.2c92.4-64.7,196.3-124.7,228.6-131.6c85.4-20.8,217.1,41.6,258.6,124.7c76.2,145.5,30,256.3-164,383.4c-341.8,226.3-612,533.5-794.4,900.7c-655.9,1337.1,60,2946.8,1468.8,3302.4c605.1,152.4,1281.7,57.7,1805.9-251.7c228.6-136.3,563.5-438.8,713.6-651.3C7659.5,958.1,7403.1-506,6327-1261.2c-196.3-140.9-224-175.5-224-291c0-103.9,71.6-194,182.5-226.3c80.8-23.1,99.3-20.8,207.8,37c157,85.4,496.5,369.5,630.5,524.2c586.6,688.2,826.8,1581.9,651.2,2438.7c-221.7,1087.7-1069.3,1951.4-2157,2200.9C5428.6,3466.1,4786.6,3500.8,4613.4,3475.4z"/><path d="M4805.1,1918.8c-404.1-71.6-759.8-332.5-933-681.3c-261-531.2-152.4-1110.8,286.4-1517.3C4398.6-499.1,4664.2-603,5006-605.4c561.2-2.3,1055.4,374.1,1221.7,930.7c50.8,166.3,50.8,503.4,0,669.7c-90.1,302.5-295.6,582-542.7,741.3C5447.1,1888.8,5068.3,1967.3,4805.1,1918.8z M5248.5,1133.6c339.5-175.5,378.8-660.5,73.9-893.8c-346.4-265.6-845.2-18.5-845.2,420.3C4477.1,1059.7,4895.2,1316.1,5248.5,1133.6z"/><path d="M4957.5-1245.1c-27.7-11.5-76.2-55.4-108.5-97c-32.3-41.6-385.7-732.1-780.6-1531.1c-646.6-1300.2-722.8-1464.2-722.8-1563.5c0-140.9,55.4-219.4,207.8-295.6l113.2-57.7H5006h1339.4l108.5,53.1c136.2,67,203.2,170.9,203.2,314.1c0,94.7-87.7,291-695.1,1545c-383.4,789.8-715.9,1471.1-741.3,1512.7c-41.6,67-147.8,145.5-196.3,140.9C5015.2-1224.3,4982.9-1233.5,4957.5-1245.1z"/></g></g>
</svg>