<?xml version="1.0" encoding="UTF-8" standalone="no"?>
<svg
   version="1.1"
   x="0px"
   y="0px"
   viewBox="0 0 88 43.56245"
   id="svg158"
   sodipodi:docname="toggle.svg"
   width="88"
   height="43.56245"
   inkscape:version="1.2.1 (9c6d41e410, 2022-07-14)"
   xmlns:inkscape="http://www.inkscape.org/namespaces/inkscape"
   xmlns:sodipodi="http://sodipodi.sourceforge.net/DTD/sodipodi-0.dtd"
   xmlns="http://www.w3.org/2000/svg"
   xmlns:svg="http://www.w3.org/2000/svg">
  <defs
     id="defs162" />
  <sodipodi:namedview
     id="namedview160"
     pagecolor="#ffffff"
     bordercolor="#666666"
     borderopacity="1.0"
     inkscape:showpageshadow="2"
     inkscape:pageopacity="0.0"
     inkscape:pagecheckerboard="0"
     inkscape:deskcolor="#d1d1d1"
     showgrid="false"
     inkscape:zoom="9.328"
     inkscape:cx="44.00729"
     inkscape:cy="34.305317"
     inkscape:window-width="2560"
     inkscape:window-height="1369"
     inkscape:window-x="-8"
     inkscape:window-y="-8"
     inkscape:window-maximized="1"
     inkscape:current-layer="svg158" />
  <g
     transform="translate(-6,-980.58095)"
     id="g152">
    <path
       style="color:#000000;text-indent:0;text-transform:none;direction:ltr;baseline-shift:baseline;enable-background:accumulate"
       d="m 72.2188,980.58095 c 11.9706,0 21.7812,9.80034 21.7812,21.78125 0,11.9809 -9.8106,21.7812 -21.7812,21.7812 H 27.7812 C 15.8015,1024.1434 6,1014.3419 6,1002.3622 6,990.38252 15.8015,980.58095 27.7812,980.58095 Z m 0,4 H 27.7812 c -9.8003,0 -17.7812,7.98094 -17.7812,17.78125 0,9.8003 7.9809,17.7812 17.7812,17.7812 h 44.4376 c 9.7892,0 17.7812,-7.9821 17.7812,-17.7812 0,-9.79909 -7.992,-17.78125 -17.7812,-17.78125 z"
       fill="#000000"
       fill-opacity="1"
       fill-rule="evenodd"
       stroke="none"
       marker="none"
       visibility="visible"
       display="inline"
       overflow="visible"
       id="path148" />
    <path
       d="m 27.3381,988.3835 c 7.6996,0 13.98,6.28045 13.98,13.98 0,7.6912 -6.2784,13.98 -13.98,13.98 -7.6932,0 -13.98,-6.2868 -13.98,-13.98 0,-7.70157 6.2888,-13.98 13.98,-13.98 z"
       style="color:#000000;text-indent:0;text-transform:none;direction:ltr;baseline-shift:baseline;enable-background:accumulate"
       fill="#000000"
       fill-opacity="1"
       fill-rule="evenodd"
       stroke="none"
       marker="none"
       visibility="visible"
       display="inline"
       overflow="visible"
       id="path150" />
  </g>
</svg>
