<?xml version="1.0" encoding="UTF-8" standalone="no"?>
<svg
   viewBox="0 0 481.24185 275"
   version="1.1"
   x="0px"
   y="0px"
   id="svg389"
   sodipodi:docname="enum.svg"
   width="481.24185"
   height="275"
   inkscape:version="1.2.1 (9c6d41e410, 2022-07-14)"
   xmlns:inkscape="http://www.inkscape.org/namespaces/inkscape"
   xmlns:sodipodi="http://sodipodi.sourceforge.net/DTD/sodipodi-0.dtd"
   xmlns="http://www.w3.org/2000/svg"
   xmlns:svg="http://www.w3.org/2000/svg"
   xmlns:rdf="http://www.w3.org/1999/02/22-rdf-syntax-ns#"
   xmlns:cc="http://creativecommons.org/ns#"
   xmlns:dc="http://purl.org/dc/elements/1.1/">
  <defs
     id="defs393" />
  <sodipodi:namedview
     id="namedview391"
     pagecolor="#ffffff"
     bordercolor="#666666"
     borderopacity="1.0"
     inkscape:showpageshadow="2"
     inkscape:pageopacity="0.0"
     inkscape:pagecheckerboard="0"
     inkscape:deskcolor="#d1d1d1"
     showgrid="false"
     inkscape:zoom="1.6046875"
     inkscape:cx="227.7702"
     inkscape:cy="200.66212"
     inkscape:window-width="2560"
     inkscape:window-height="1369"
     inkscape:window-x="-8"
     inkscape:window-y="-8"
     inkscape:window-maximized="1"
     inkscape:current-layer="svg389" />
  <title
     id="title375">Dropdown</title>
  <desc
     id="desc377">Created with Sketch.</desc>
  <g
     stroke="none"
     stroke-width="1"
     fill="none"
     fill-rule="evenodd"
     id="g383"
     transform="translate(-15,-119)">
    <g
       transform="translate(15,119)"
       fill="#000000"
       id="g381">
      <path
         d="m 407.85253,107.5 c 2.21659,3.75 2.21659,8.75 0,12.5 l -39.45529,63.75 c -2.21659,3.75 -6.64978,6.25 -11.52627,6.25 -4.8765,0 -9.30968,-2.5 -11.52627,-6.25 L 305.8894,120 c -2.21659,-3.75 -2.21659,-8.75 0,-12.5 2.21659,-3.75 6.64977,-6.25 11.52627,-6.25 h 78.46728 c 4.8765,0 9.30968,2.5 11.96958,6.25 z m -170.67742,130 c 0,7.08333 -3.54654,12.5 -8.17921,12.5 H 43.644654 c -4.632672,0 -8.179216,-5.41667 -8.179216,-12.5 v -200 c 0,-7.083333 3.546544,-12.5 8.179216,-12.5 H 228.9959 c 4.63267,0 8.17921,5.416667 8.17921,12.5 z M 50.334323,0 C 22.374258,0 0,4 0,37.5 v 200 C 0,275 22.374258,275 50.334323,275 H 430.66568 C 458.62574,275 481,271 481,237.5 V 39.5 C 484,10 458.62574,0 430.66568,0 Z"
         id="path379" />
    </g>
  </g>
  <metadata
     id="metadata512">
    <rdf:RDF>
      <cc:Work
         rdf:about="">
        <dc:title>Dropdown</dc:title>
      </cc:Work>
    </rdf:RDF>
  </metadata>
</svg>
