<?xml version="1.0" encoding="UTF-8" standalone="no"?>
<svg
   xmlns:dc="http://purl.org/dc/elements/1.1/"
   xmlns:cc="http://creativecommons.org/ns#"
   xmlns:rdf="http://www.w3.org/1999/02/22-rdf-syntax-ns#"
   xmlns:svg="http://www.w3.org/2000/svg"
   xmlns="http://www.w3.org/2000/svg"
   xmlns:sodipodi="http://sodipodi.sourceforge.net/DTD/sodipodi-0.dtd"
   xmlns:inkscape="http://www.inkscape.org/namespaces/inkscape"
   viewBox="0 0 80.769094 81.155317"
   version="1.1"
   x="0px"
   y="0px"
   id="svg4542"
   sodipodi:docname="gas_concentration.svg"
   width="80.769096"
   height="81.155319"
   inkscape:version="0.92.4 (5da689c313, 2019-01-14)">
  <metadata
     id="metadata4548">
    <rdf:RDF>
      <cc:Work
         rdf:about="">
        <dc:format>image/svg+xml</dc:format>
        <dc:type
           rdf:resource="http://purl.org/dc/dcmitype/StillImage" />
        <dc:title></dc:title>
      </cc:Work>
    </rdf:RDF>
  </metadata>
  <defs
     id="defs4546" />
  <sodipodi:namedview
     pagecolor="#ffffff"
     bordercolor="#666666"
     borderopacity="1"
     objecttolerance="10"
     gridtolerance="10"
     guidetolerance="10"
     inkscape:pageopacity="0"
     inkscape:pageshadow="2"
     inkscape:window-width="1920"
     inkscape:window-height="1027"
     id="namedview4544"
     showgrid="false"
     inkscape:zoom="6.864"
     inkscape:cx="40.38455"
     inkscape:cy="28.07767"
     inkscape:window-x="-8"
     inkscape:window-y="-8"
     inkscape:window-maximized="1"
     inkscape:current-layer="svg4542" />
  <g
     transform="translate(-9.61545,-961.78458)"
     id="g4536">
    <path
       style="color:#000000;font-style:normal;font-variant:normal;font-weight:normal;font-stretch:normal;font-size:medium;line-height:normal;font-family:sans-serif;text-indent:0;text-align:start;text-decoration:none;text-decoration-line:none;text-decoration-style:solid;text-decoration-color:#000000;letter-spacing:normal;word-spacing:normal;text-transform:none;writing-mode:lr-tb;direction:ltr;baseline-shift:baseline;text-anchor:start;white-space:normal;clip-rule:nonzero;display:inline;overflow:visible;visibility:visible;opacity:1;isolation:auto;mix-blend-mode:normal;color-interpolation:sRGB;color-interpolation-filters:linearRGB;solid-color:#000000;solid-opacity:1;fill:#000000;fill-opacity:1;fill-rule:nonzero;stroke:none;stroke-width:2.59740257;stroke-linecap:round;stroke-linejoin:round;stroke-miterlimit:4;stroke-dasharray:none;stroke-dashoffset:0;stroke-opacity:1;color-rendering:auto;image-rendering:auto;shape-rendering:auto;text-rendering:auto;enable-background:accumulate"
       d="m 20.45145,961.78458 c -4.4315,0 -8.0528,3.62117 -8.0528,8.05273 0,4.4316 3.6213,8.05273 8.0528,8.05273 0.9025,0 1.7686,-0.15693 2.58,-0.43359 a 0.50005,0.50005 0 0 0 0.039,0.0801 l 11.7422,20.34182 -3.7012,-0.9922 a 0.50005,0.50005 0 0 0 -0.1484,-0.019 0.50005,0.50005 0 0 0 -0.1113,0.9844 l 4.7089,1.26171 a 0.50005,0.50005 0 0 0 0.5489,0.01 0.50005,0.50005 0 0 0 0.2636,-0.4727 l 1.2637,-4.71483 a 0.50005,0.50005 0 0 0 -0.5078,-0.63672 0.50005,0.50005 0 0 0 -0.457,0.37698 l -0.9922,3.70118 -11.7227,-20.30275 c 2.6837,-1.30922 4.545,-4.06103 4.545,-7.23632 0,-4.43158 -3.6192,-8.05274 -8.0508,-8.05274 z m 0,2.59766 c 3.0279,0 5.455,2.42724 5.455,5.45507 0,3.02785 -2.4271,5.45507 -5.455,5.45507 -3.0278,0 -5.4532,-2.42722 -5.4532,-5.45507 0,-3.02783 2.4254,-5.45507 5.4532,-5.45507 z m 39.9258,1.1875 a 0.50005,0.50005 0 0 0 -0.053,0.002 0.50005,0.50005 0 0 0 -0.2207,0.0703 l -4.2851,2.47461 -0.01,0.004 a 0.50005,0.50005 0 0 0 -0.082,0.0391 0.50005,0.50005 0 0 0 -0.076,0.0566 0.50005,0.50005 0 0 0 0,0.002 0.50005,0.50005 0 0 0 0,0.002 0.50005,0.50005 0 0 0 -0.035,0.0332 0.50005,0.50005 0 0 0 0,0.002 0.50005,0.50005 0 0 0 -0.029,0.0371 0.50005,0.50005 0 0 0 0,0.002 0.50005,0.50005 0 0 0 -0.025,0.0391 0.50005,0.50005 0 0 0 0,0.002 0.50005,0.50005 0 0 0 -0.01,0.0195 0.50005,0.50005 0 0 0 -0.014,0.0234 0.50005,0.50005 0 0 0 0,0.002 0.50005,0.50005 0 0 0 -0.018,0.043 0.50005,0.50005 0 0 0 0,0.002 0.50005,0.50005 0 0 0 0.076,0.47656 l 2.4863,4.30859 a 0.5005087,0.5005087 0 1 0 0.8672,-0.5 l -1.918,-3.32031 17.6309,4.72461 c -0.2467,0.77048 -0.3848,1.58937 -0.3848,2.43945 0,4.43158 3.6213,8.05274 8.0528,8.05274 4.4316,0 8.0547,-3.62116 8.0547,-8.05274 0,-4.43159 -3.6231,-8.05078 -8.0547,-8.05078 -3.2285,0 -6.0174,1.92522 -7.2989,4.68164 a 0.50029197,0.50029197 0 0 0 -0.076,-0.0273 l -17.6641,-4.73242 3.3203,-1.91797 a 0.50005,0.50005 0 0 0 -0.2265,-0.9375 z m 21.9453,5.53125 c 3.0279,0 5.455,2.42526 5.455,5.45313 0,3.02783 -2.4271,5.45506 -5.455,5.45506 -3.0278,0 -5.4532,-2.42723 -5.4532,-5.45506 0,-3.02785 2.4254,-5.45313 5.4532,-5.45313 z m -20.4121,25.918 c -4.4316,0 -8.0547,3.61921 -8.0547,8.05081 0,3.3165 2.03,6.1776 4.9082,7.4082 l -18.4707,18.4707 v -3.834 a 0.50005,0.50005 0 0 0 -0.5078,-0.5078 0.50005,0.50005 0 0 0 -0.4922,0.5078 v 4.9609 a 0.50005,0.50005 0 0 0 -0.01,0.08 0.50005,0.50005 0 0 0 0,0.01 0.50005,0.50005 0 0 0 0.4628,0.4942 0.50005,0.50005 0 0 0 0.049,0 0.50005,0.50005 0 0 0 0.049,0 0.50005,0.50005 0 0 0 0.025,0 h 4.959 a 0.50005,0.50005 0 1 0 0,-1 h -3.834 l 18.625,-18.625 a 0.50005,0.50005 0 0 0 0.1289,-0.2109 c 0.6873,0.1922 1.4095,0.3027 2.1563,0.3027 4.4316,0 8.0507,-3.6212 8.0507,-8.0528 0,-4.4316 -3.6191,-8.05082 -8.0507,-8.05082 z m 0,2.59569 c 3.0278,0 5.4511,2.42722 5.4511,5.45512 0,3.0278 -2.4233,5.4551 -5.4511,5.4551 -3.0279,0 -5.4571,-2.4273 -5.4571,-5.4551 0,-3.0279 2.4292,-5.45512 5.4571,-5.45512 z m 23.5253,5.93942 a 0.50005,0.50005 0 0 0 -0.051,0 0.50005,0.50005 0 0 0 -0.01,0 0.50005,0.50005 0 0 0 -0.092,0.019 0.50005,0.50005 0 0 0 -0.06,0.021 l -4.7969,1.2852 a 0.50054927,0.50054927 0 0 0 0.2598,0.9668 l 3.7011,-0.9922 -11.4531,19.8379 a 0.50050437,0.50050437 0 0 0 -0.062,0.1856 c -0.265,-0.027 -0.5349,-0.041 -0.8066,-0.041 -4.4316,0 -8.0489,3.6211 -8.0489,8.0527 0,4.4316 3.6173,8.0508 8.0489,8.0508 4.4316,0 8.0546,-3.6192 8.0546,-8.0508 0,-3.8068 -2.6757,-7.0088 -6.2382,-7.8379 l 11.373,-19.6993 0.9922,3.7032 a 0.50029197,0.50029197 0 1 0 0.9668,-0.2578 l -1.2754,-4.7598 a 0.50005,0.50005 0 0 0 -0.3086,-0.4434 0.50005,0.50005 0 0 0 -0.037,-0.014 0.50005,0.50005 0 0 0 -0.01,0 0.50005,0.50005 0 0 0 -0.019,0 0.50005,0.50005 0 0 0 -0.02,-0.01 0.50005,0.50005 0 0 0 -0.098,-0.012 z m -45.3418,0.334 a 0.50005,0.50005 0 0 0 -0.2128,0.9356 l 3.3183,1.916 -17.6172,4.7227 c -0.6843,-3.7481 -3.9748,-6.6094 -7.914,-6.6094 -4.4316,0 -8.0528,3.6192 -8.0528,8.0508 0,4.4315 3.6212,8.0527 8.0528,8.0527 4.4316,0 8.0507,-3.6212 8.0507,-8.0527 0,-0.1504 -0.013,-0.297 -0.021,-0.4453 a 0.50005,0.50005 0 0 0 0.096,-0.019 l 17.666,-4.7325 -1.916,3.3184 a 0.50005,0.50005 0 1 0 0.8652,0.5 l 2.4492,-4.2422 a 0.50005,0.50005 0 0 0 0.037,-0.6856 0.50005,0.50005 0 0 0 -0.2265,-0.164 l -4.2871,-2.4766 a 0.50005,0.50005 0 0 0 -0.2872,-0.068 z m -22.4257,3.5606 c 3.0278,0 5.455,2.4272 5.455,5.4551 0,3.0278 -2.4272,5.455 -5.455,5.455 -3.0279,0 -5.4532,-2.4272 -5.4532,-5.455 0,-3.0279 2.4253,-5.4551 5.4532,-5.4551 z m 54.4004,19.9883 c 3.0279,0 5.455,2.4272 5.455,5.4551 0,3.0278 -2.4271,5.4531 -5.455,5.4531 -3.0278,0 -5.4532,-2.4253 -5.4532,-5.4531 0,-3.0279 2.4254,-5.4551 5.4532,-5.4551 z"
       id="path4534"
       inkscape:connector-curvature="0" />
  </g>
</svg>
