<?xml version="1.0" standalone="no"?>
<!DOCTYPE svg PUBLIC "-//W3C//DTD SVG 20010904//EN"
 "http://www.w3.org/TR/2001/REC-SVG-20010904/DTD/svg10.dtd">
<svg version="1.0" xmlns="http://www.w3.org/2000/svg"
 width="769.000000pt" height="205.000000pt" viewBox="0 0 769.000000 205.000000"
 preserveAspectRatio="xMidYMid meet">

<g transform="translate(0.000000,205.000000) scale(0.100000,-0.100000)"
fill="#000000" stroke="none">
<path d="M7514 1827 c-128 -177 -503 -718 -537 -774 -5 -8 41 -84 118 -197 69
-101 125 -187 125 -190 0 -3 -58 -6 -129 -6 l-128 0 -59 90 c-33 49 -63 90
-69 89 -10 0 -240 -323 -251 -353 -6 -14 45 -16 511 -16 410 0 516 3 512 13
-2 6 -89 133 -191 280 -103 148 -189 274 -192 281 -2 6 99 234 227 505 127
271 229 494 227 496 -2 3 -76 -95 -164 -218z"/>
<path d="M1345 1759 c-263 -40 -389 -162 -372 -361 3 -39 21 -111 42 -170 71
-201 97 -283 102 -329 23 -194 -119 -319 -361 -319 -106 0 -190 19 -261 59
-66 37 -95 80 -95 142 0 108 115 169 318 169 102 0 148 16 204 70 85 82 90 80
-246 80 -371 0 -469 -16 -573 -96 -80 -61 -114 -187 -78 -295 61 -183 384
-302 775 -286 424 18 689 182 708 438 7 95 -9 164 -89 387 -69 193 -80 247
-58 295 18 40 54 51 192 55 l128 4 -50 -101 c-28 -55 -51 -105 -51 -111 0 -6
62 -10 173 -10 l173 0 36 38 c49 51 60 76 61 136 1 65 -23 107 -83 147 -79 53
-126 62 -340 65 -107 1 -222 -2 -255 -7z"/>
<path d="M4272 1603 c-5 -10 -87 -235 -183 -500 l-174 -483 -230 0 -230 1 142
58 c78 32 157 67 175 78 95 56 114 192 37 264 -62 58 -125 73 -326 77 -143 3
-195 0 -245 -12 -194 -50 -310 -169 -312 -324 -1 -37 3 -82 7 -99 l9 -33 -146
0 -145 0 66 192 c74 214 76 236 21 264 -24 12 -50 15 -112 12 -109 -6 -160
-32 -319 -164 -71 -58 -130 -105 -131 -103 -2 2 56 172 129 377 89 250 129
375 121 378 -6 2 -83 3 -170 2 l-159 -3 -193 -545 c-107 -300 -194 -551 -194
-557 0 -22 216 -17 265 6 22 10 119 84 215 163 96 80 176 145 177 144 2 -2
-13 -49 -32 -106 -41 -121 -44 -169 -14 -196 20 -18 55 -19 1075 -22 995 -2
1057 -1 1108 16 48 16 55 17 77 2 34 -23 508 -22 559 1 32 14 38 14 75 -2 22
-10 57 -19 77 -19 l38 0 -35 -45 c-58 -77 -80 -187 -54 -280 15 -55 82 -120
139 -135 25 -7 78 -10 121 -8 184 11 319 134 421 386 l33 82 108 0 c59 0 107
-4 107 -9 0 -5 -42 -101 -94 -215 -52 -113 -93 -206 -91 -206 3 0 300 417 379
532 16 24 95 137 175 252 80 116 147 213 149 217 2 4 -48 83 -111 175 -63 93
-122 181 -132 197 l-17 27 133 0 134 0 64 -95 c36 -53 68 -94 73 -93 4 2 64
84 133 183 l126 180 -517 3 c-284 1 -519 0 -521 -2 -3 -3 84 -131 192 -287
l196 -282 -94 -206 -93 -206 -122 -3 c-67 -1 -122 -1 -122 0 0 2 38 109 84
238 46 129 82 238 79 243 -8 13 -329 8 -340 -5 -6 -7 -45 -112 -87 -234 -43
-121 -81 -226 -85 -232 -5 -9 -33 -12 -93 -10 l-86 3 80 220 c43 121 81 230
85 243 l5 22 -173 -2 -174 -3 -83 -230 c-46 -126 -85 -236 -87 -242 -3 -10
-38 -13 -130 -13 l-125 0 15 38 c21 53 345 945 345 949 0 2 -77 2 -171 1
l-171 -3 -178 -490 -177 -490 -143 -3 c-133 -2 -142 -1 -135 15 10 27 271 742
316 866 l38 107 -169 0 c-151 0 -170 -2 -178 -17z m-724 -665 c-3 -7 -29 -82
-59 -165 l-54 -153 -50 6 c-113 15 -119 32 -64 195 l44 129 93 0 c71 0 93 -3
90 -12z m2041 -515 c-6 -16 -29 -77 -51 -138 -22 -60 -43 -113 -47 -118 -4 -4
-16 2 -27 14 -52 58 5 204 101 257 31 17 35 14 24 -15z"/>
</g>
</svg>
