<?xml version="1.0" standalone="no"?>
<!DOCTYPE svg PUBLIC "-//W3C//DTD SVG 20010904//EN"
 "http://www.w3.org/TR/2001/REC-SVG-20010904/DTD/svg10.dtd">
<svg version="1.0" xmlns="http://www.w3.org/2000/svg"
 width="443.000000pt" height="122.000000pt" viewBox="0 0 443.000000 122.000000"
 preserveAspectRatio="xMidYMid meet">
<metadata>
Created by potrace 1.15, written by Peter Selinger 2001-2017
</metadata>
<g transform="translate(0.000000,122.000000) scale(0.100000,-0.100000)"
fill="#000000" stroke="none">
<path d="M863 1205 c-112 -31 -172 -79 -194 -158 -16 -56 0 -146 45 -263 68
-178 68 -252 0 -318 -123 -119 -444 -72 -444 65 0 75 59 109 205 119 55 3 110
11 121 18 25 13 74 69 74 84 0 6 -81 8 -237 6 -257 -5 -301 -12 -371 -65 -46
-35 -62 -72 -62 -146 0 -75 20 -112 88 -164 87 -66 304 -111 478 -99 237 16
415 107 458 233 31 91 21 163 -51 355 -72 196 -59 228 96 228 l81 0 -35 -70
c-19 -38 -35 -72 -35 -75 0 -3 57 -5 126 -5 l126 0 29 31 c72 77 42 178 -67
218 -47 18 -77 21 -217 20 -106 0 -180 -5 -214 -14z"/>
<path d="M1310 719 c-74 -210 -136 -386 -138 -390 -2 -5 38 -9 90 -9 108 0 93
-7 257 129 63 52 112 87 108 77 -4 -9 -16 -48 -28 -87 -20 -65 -20 -71 -5 -94
l17 -25 762 4 c419 2 770 4 780 4 9 0 101 -1 205 -1 103 0 198 0 212 1 14 2
44 0 67 -4 l43 -6 -26 -44 c-50 -85 -42 -199 17 -249 28 -23 39 -25 120 -25
105 0 140 14 206 81 38 37 93 134 122 212 10 27 11 27 106 27 113 0 156 15
185 62 11 18 20 36 20 41 0 4 -58 7 -130 7 -71 0 -130 3 -130 8 0 4 25 76 55
161 30 85 55 156 55 158 0 1 -56 3 -124 3 l-123 0 -58 -165 -57 -165 -60 0
c-51 0 -59 2 -54 16 30 78 106 296 106 304 0 7 -44 10 -122 8 l-122 -3 -17
-45 c-9 -25 -35 -98 -59 -163 l-42 -117 -83 0 -82 0 118 332 c66 183 119 334
119 336 0 1 -55 1 -122 0 l-122 -3 -117 -330 -117 -330 -96 -3 -95 -3 45 128
c52 144 147 411 174 491 l19 52 -122 0 -122 0 -59 -168 c-32 -92 -86 -242
-119 -334 l-59 -168 -147 0 -146 1 80 33 c118 48 143 63 160 96 35 68 10 136
-62 171 -42 21 -66 24 -180 27 -113 3 -143 1 -201 -17 -131 -40 -199 -129
-190 -251 l4 -60 -97 0 -96 0 43 122 c24 68 44 135 44 150 0 36 -34 58 -90 58
-76 0 -130 -25 -233 -110 l-96 -80 45 128 c113 316 134 377 134 389 0 10 -28
13 -117 13 l-118 0 -135 -381z m1138 -81 c-3 -7 -20 -57 -39 -110 -33 -96 -35
-98 -65 -98 -18 0 -42 8 -54 18 l-23 18 28 85 c15 46 30 87 32 92 2 4 31 7 65
7 44 0 59 -3 56 -12z"/>
</g>
</svg>
