<?xml version="1.0" encoding="UTF-8" standalone="no"?>
<svg
   version="1.1"
   x="0px"
   y="0px"
   viewBox="0 0 28 28"
   enable-background="new 0 0 32 32"
   xml:space="preserve"
   id="svg39"
   sodipodi:docname="analog.svg"
   width="28"
   height="28"
   inkscape:version="1.2.1 (9c6d41e410, 2022-07-14)"
   xmlns:inkscape="http://www.inkscape.org/namespaces/inkscape"
   xmlns:sodipodi="http://sodipodi.sourceforge.net/DTD/sodipodi-0.dtd"
   xmlns="http://www.w3.org/2000/svg"
   xmlns:svg="http://www.w3.org/2000/svg"><defs
     id="defs43" /><sodipodi:namedview
     id="namedview41"
     pagecolor="#ffffff"
     bordercolor="#666666"
     borderopacity="1.0"
     inkscape:showpageshadow="2"
     inkscape:pageopacity="0.0"
     inkscape:pagecheckerboard="0"
     inkscape:deskcolor="#d1d1d1"
     showgrid="false"
     inkscape:zoom="10.306081"
     inkscape:cx="-16.980266"
     inkscape:cy="38.035795"
     inkscape:window-width="2560"
     inkscape:window-height="1369"
     inkscape:window-x="-8"
     inkscape:window-y="-8"
     inkscape:window-maximized="1"
     inkscape:current-layer="svg39" /><g
     id="g33"
     transform="translate(-2,-2)"><path
       d="m 29,9.5 c -0.552,0 -1,0.447 -1,1 V 15 c 0,1.103 -0.897,2 -2,2 -1.103,0 -2,-0.897 -2,-2 V 6.5 C 24,4.019 21.981,2 19.5,2 17.019,2 15,4.019 15,6.5 v 8 C 15,15.879 13.878,17 12.5,17 11.122,17 10,15.879 10,14.5 V 6 C 10,3.794 8.206,2 6,2 3.794,2 2,3.794 2,6 v 4.5 c 0,0.553 0.448,1 1,1 0.552,0 1,-0.447 1,-1 V 6 C 4,4.897 4.897,4 6,4 7.103,4 8,4.897 8,6 v 8.5 c 0,2.481 2.019,4.5 4.5,4.5 2.481,0 4.5,-2.019 4.5,-4.5 v -8 C 17,5.121 18.122,4 19.5,4 20.878,4 22,5.121 22,6.5 V 15 c 0,2.206 1.794,4 4,4 2.206,0 4,-1.794 4,-4 v -4.5 c 0,-0.553 -0.448,-1 -1,-1 z"
       id="path27" /><path
       d="M 16.293,23.293 15.586,24 H 15 c -0.552,0 -1,0.447 -1,1 0,0.553 0.448,1 1,1 h 1 c 0.265,0 0.52,-0.105 0.707,-0.293 l 1,-1 c 0.391,-0.391 0.391,-1.023 0,-1.414 -0.391,-0.391 -1.023,-0.391 -1.414,0 z"
       id="path29" /><path
       d="m 29,24 h -8 c -0.035,0 -0.065,0.016 -0.099,0.02 C 20.444,21.731 18.421,20 16,20 13.579,20 11.556,21.731 11.099,24.02 11.065,24.016 11.035,24 11,24 H 3 c -0.552,0 -1,0.447 -1,1 0,0.553 0.448,1 1,1 h 8 c 0.035,0 0.065,-0.016 0.099,-0.02 0.457,2.289 2.48,4.02 4.901,4.02 2.421,0 4.444,-1.731 4.901,-4.02 C 20.935,25.984 20.965,26 21,26 h 8 c 0.552,0 1,-0.447 1,-1 0,-0.553 -0.448,-1 -1,-1 z m -13,4 c -1.654,0 -3,-1.346 -3,-3 0,-1.654 1.346,-3 3,-3 1.654,0 3,1.346 3,3 0,1.654 -1.346,3 -3,3 z"
       id="path31" /></g></svg>
