<?xml version="1.0" encoding="UTF-8" standalone="no"?>
<svg
   version="1.0"
   x="0px"
   y="0px"
   viewBox="0 0 221 120"
   enable-background="new 0 0 350 350"
   xml:space="preserve"
   id="svg731"
   sodipodi:docname="text.svg"
   width="221"
   height="120"
   inkscape:version="1.2.1 (9c6d41e410, 2022-07-14)"
   xmlns:inkscape="http://www.inkscape.org/namespaces/inkscape"
   xmlns:sodipodi="http://sodipodi.sourceforge.net/DTD/sodipodi-0.dtd"
   xmlns="http://www.w3.org/2000/svg"
   xmlns:svg="http://www.w3.org/2000/svg"><defs
     id="defs735" /><sodipodi:namedview
     id="namedview733"
     pagecolor="#ffffff"
     bordercolor="#666666"
     borderopacity="1.0"
     inkscape:showpageshadow="2"
     inkscape:pageopacity="0.0"
     inkscape:pagecheckerboard="0"
     inkscape:deskcolor="#d1d1d1"
     showgrid="false"
     inkscape:zoom="2.3474286"
     inkscape:cx="101.60054"
     inkscape:cy="103.51753"
     inkscape:window-width="2560"
     inkscape:window-height="1369"
     inkscape:window-x="-8"
     inkscape:window-y="-8"
     inkscape:window-maximized="1"
     inkscape:current-layer="svg731" /><g
     id="g725"
     transform="translate(-64.5,-115)"><g
       id="g707"><path
         d="M 278,235 H 72 c -4.1,0 -7.5,-3.4 -7.5,-7.5 v -105 c 0,-4.1 3.4,-7.5 7.5,-7.5 h 206 c 4.1,0 7.5,3.4 7.5,7.5 v 105 c 0,4.1 -3.4,7.5 -7.5,7.5 z M 79.5,220 h 191 v -90 h -191 z"
         id="path705" /></g><g
       id="g711"><path
         d="M 127.7,202.5 H 97.6 c -2.8,0 -5,-2.2 -5,-5 0,-2.8 2.2,-5 5,-5 h 30.1 c 2.8,0 5,2.2 5,5 0,2.8 -2.2,5 -5,5 z"
         id="path709" /></g><g
       id="g715"><path
         d="m 167.7,200.5 c -2.8,0 -5,-2.2 -5,-5 v -42 c 0,-2.8 2.2,-5 5,-5 2.8,0 5,2.2 5,5 v 42 c 0,2.8 -2.3,5 -5,5 z"
         id="path713" /></g><g
       id="g719"><path
         d="m 182.7,155.5 h -30.1 c -2.8,0 -5,-2.2 -5,-5 0,-2.8 2.2,-5 5,-5 h 30.1 c 2.8,0 5,2.2 5,5 0,2.8 -2.2,5 -5,5 z"
         id="path717" /></g><g
       id="g723"><path
         d="m 182.7,202.5 h -30.1 c -2.8,0 -5,-2.2 -5,-5 0,-2.8 2.2,-5 5,-5 h 30.1 c 2.8,0 5,2.2 5,5 0,2.8 -2.2,5 -5,5 z"
         id="path721" /></g></g></svg>
