<?xml version="1.0" encoding="UTF-8" standalone="no"?>
<svg
   width="960px"
   height="840px"
   viewBox="0 0 960 840"
   version="1.1"
   id="svg105"
   sodipodi:docname="zwave-learnmode.svg"
   xml:space="preserve"
   inkscape:version="1.2.1 (9c6d41e410, 2022-07-14)"
   xmlns:inkscape="http://www.inkscape.org/namespaces/inkscape"
   xmlns:sodipodi="http://sodipodi.sourceforge.net/DTD/sodipodi-0.dtd"
   xmlns="http://www.w3.org/2000/svg"
   xmlns:svg="http://www.w3.org/2000/svg"
   xmlns:rdf="http://www.w3.org/1999/02/22-rdf-syntax-ns#"
   xmlns:cc="http://creativecommons.org/ns#"
   xmlns:dc="http://purl.org/dc/elements/1.1/"><defs
     id="defs109"><linearGradient
       id="linearGradient1125"
       inkscape:swatch="solid"><stop
         style="stop-color:#303030;stop-opacity:1;"
         offset="0"
         id="stop1123" /></linearGradient><inkscape:path-effect
       effect="fill_between_many"
       method="originald"
       linkedpaths="#path438,0,1|"
       id="path-effect442" /></defs><sodipodi:namedview
     id="namedview107"
     pagecolor="#ffffff"
     bordercolor="#666666"
     borderopacity="1.0"
     inkscape:showpageshadow="2"
     inkscape:pageopacity="0.0"
     inkscape:pagecheckerboard="0"
     inkscape:deskcolor="#d1d1d1"
     showgrid="false"
     inkscape:zoom="0.75911459"
     inkscape:cx="313.52315"
     inkscape:cy="356.99485"
     inkscape:window-width="2560"
     inkscape:window-height="1369"
     inkscape:window-x="-8"
     inkscape:window-y="-8"
     inkscape:window-maximized="1"
     inkscape:current-layer="svg105"><inkscape:page
       x="0"
       y="0"
       width="960"
       height="840"
       id="page606" /><inkscape:page
       x="0"
       y="0"
       width="960"
       height="840"
       id="page608" /></sodipodi:namedview><title
     id="title93">Shelly 2.5</title><g
     id="Shelly-2.5"
     stroke="none"
     stroke-width="1"
     fill="none"
     fill-rule="evenodd"><path
       d="m 210.66212,833 c -9.93403,0 -19.44014,-4.63045 -26.3303,-12.82556 L 17.220885,621.41394 C 10.6634,613.61452 7,603.20869 7,592.38169 V 72.423849 C 7,49.306419 23.364524,30.566039 43.551188,30.566039 H 916.44881 c 20.18667,0 36.55119,18.74038 36.55119,41.85781 V 591.37761 c 0,11.46418 -4.10595,22.42664 -11.35925,30.32803 L 758.26117,821.47021 C 751.46638,828.87212 742.44719,833 733.06923,833 Z M 754.81235,817.33148 938.20233,617.55031 C 944.45851,610.73497 948,601.2793 948,591.39087 V 72.394001 C 948,52.454054 933.88514,36.289533 916.47359,36.289533 H 43.52641 C 26.114855,36.289533 12,52.454054 12,72.394001 V 592.39503 c 0,9.33883 3.159784,18.31438 8.815796,25.04178 l 167.120414,198.777 c 5.94296,7.0687 14.14225,11.0627 22.71062,11.0627 H 733.0836 c 8.08875,0 15.86805,-3.56051 21.72875,-9.94503 z"
       id="Path"
       fill="#230020"
       fill-rule="nonzero"
       style="stroke-width:1.06991" /></g><path
     d="m 322.02143,144.25478 c -141.08669,0 -255.702857,114.61617 -255.702857,255.70286 h 34.280517 c 0.44714,-122.42617 99.45822,-221.39253 221.43724,-221.39253 v -34.31033 z m 0,68.17352 c -103.3185,0 -187.55915,84.21084 -187.55915,187.52934 h 34.29542 c 0.44714,-84.65798 69.05289,-153.23392 153.26373,-153.23392 z m 0,85.09021 A 101.90257,101.90257 0 0 0 219.99962,399.5254 101.93237,101.93237 0 0 0 322.02143,501.54721 101.90257,101.90257 0 0 0 424.02832,399.5254 101.87276,101.87276 0 0 0 322.02143,297.51851 Z m -33.8781,47.30711 h 85.52244 l -45.57818,72.48094 h 45.57818 l -20.83659,32.13426 h -86.372 l 46.85998,-73.36031 h -44.71372 l 19.52499,-31.25489 z"
     id="path596"
     style="stroke-width:14.9046" /><metadata
     id="metadata611"><rdf:RDF><cc:Work
         rdf:about=""><dc:title>Shelly 2.5</dc:title></cc:Work></rdf:RDF></metadata><path
     style="opacity:0.01;fill:#000000;stroke-width:9.44882;stroke-miterlimit:10"
     id="path253"
     sodipodi:type="arc"
     sodipodi:cx="681.71527"
     sodipodi:cy="488.72729"
     sodipodi:rx="57.3036"
     sodipodi:ry="61.914238"
     sodipodi:start="0"
     sodipodi:end="4.0472431"
     sodipodi:arc-type="slice"
     d="m 739.01887,488.72729 a 57.3036,61.914238 0 0 1 -44.70235,60.39869 57.3036,61.914238 0 0 1 -64.36274,-33.83495 57.3036,61.914238 0 0 1 16.3952,-75.27951 l 35.36629,48.71577 z" /><path
     d="m 738.29375,559.666 c -40.35348,-0.0473 -73.07992,32.67442 -73.03858,73.02789 -0.0354,40.35276 32.68582,73.07401 73.03858,73.03858 40.35347,0.0413 73.07514,-32.6851 73.02789,-73.03858 0.0532,-40.35419 -32.6737,-73.08106 -73.02789,-73.02789 z"
     id="path432"
     style="stroke-width:10.6704"
     sodipodi:nodetypes="ccccc" /><path
     inkscape:original-d="M 0,0"
     inkscape:path-effect="#path-effect442"
     d="m 726.56523,683.926 c -36.32005,-8.91974 -52.56839,-52.10082 -31.10497,-82.66362 15.25771,-21.7262 44.18398,-29.11014 67.7352,-17.2906 13.18031,6.61474 22.49677,17.46657 27.23133,31.71912 2.00264,6.02855 2.2027,7.43192 2.23559,15.68152 0.0294,7.36246 -0.25528,10.07809 -1.51884,14.49075 -4.54444,15.8703 -15.65791,28.74173 -30.46704,35.2864 -9.68311,4.2793 -23.43432,5.39855 -34.11127,2.77643 z"
     id="path444"
     class="UnoptimicedTransforms" /><path
     style="opacity:1;fill:#ffffff;fill-opacity:1;fill-rule:nonzero;stroke:#fceaea;stroke-width:1.7011;stroke-miterlimit:10;stroke-dasharray:none;stroke-opacity:1"
     d="m 714.06452,720.45044 c -68.64893,-16.8593 -99.36009,-98.47632 -58.79185,-156.2434 28.83877,-41.06492 83.51262,-55.02138 128.02703,-32.68115 24.91225,12.50259 42.52139,33.01376 51.47024,59.95266 3.7852,11.39463 4.16335,14.04715 4.22551,29.6398 0.0555,13.91587 -0.48251,19.04872 -2.87077,27.38913 -8.5895,29.99662 -29.59519,54.32505 -57.58609,66.6952 -18.30214,8.08835 -44.29346,10.20386 -64.47407,5.24776 z"
     id="path438"
     class="UnoptimicedTransforms"
     transform="matrix(0.52906952,0,0,0.52906952,348.77546,302.75763)"
     inkscape:highlight-color="#ffffff" /><path
     style="opacity:0.01;fill:#000000;stroke-width:12.4472;stroke-miterlimit:10"
     d="m 200.74054,830.73147 c -2.61912,-0.93597 -6.64,-3.039 -8.93529,-4.67339 -2.29531,-1.63439 -43.02268,-49.17289 -90.50527,-105.6411 C 38.86865,646.17115 13.990152,615.66124 11.435961,610.21165 L 7.903945,602.67581 V 333.28302 C 7.903945,76.1417 8.0130091,63.57748 10.30211,57.013475 13.234221,48.605633 23.00997,37.37826 30.270368,34.080083 35.36628,31.765165 52.420987,31.672542 478.6945,31.644711 c 335.89622,-0.02193 444.378,0.345953 448.29751,1.520265 6.99138,2.094672 16.22557,10.49828 20.55575,18.706838 l 3.56029,6.749112 V 331.96569 605.31046 l -3.66055,6.58662 c -4.42742,7.96646 -188.59336,209.12952 -196.26825,214.38231 -2.90138,1.98573 -7.41719,4.20541 -10.03514,4.93261 -3.11528,0.86535 -96.47339,1.30475 -270.20072,1.27171 -213.50062,-0.0406 -266.37263,-0.38347 -270.20285,-1.75224 z m 545.14535,-6.22229 C 754.50821,820.3352 937.31363,621.33667 943.86277,608.9953 l 4.61064,-8.68841 V 332.75722 c 0,-225.434 -0.28918,-268.379127 -1.83709,-272.81897 -2.92939,-8.402347 -8.95009,-16.114283 -15.65948,-20.058291 l -6.21527,-3.653544 H 480.16466 35.567753 l -5.432921,2.906215 c -6.482438,3.46763 -11.764654,9.426665 -15.523287,17.512309 l -2.755627,5.927959 V 332.62435 602.67581 l 2.799866,5.92796 c 1.561582,3.30623 40.733465,51.07998 88.571006,108.02058 69.59098,82.83353 87.06838,102.90026 92.64787,106.37393 l 6.87672,4.2813 H 471.4572 740.16302 Z"
     id="path440" /><path
     style="opacity:1;fill:#000000;fill-opacity:1;fill-rule:nonzero;stroke:#fceaea;stroke-width:1.7011;stroke-miterlimit:10;stroke-dasharray:none;stroke-opacity:1"
     d="m 714.06452,720.45044 c -68.64893,-16.8593 -99.36009,-98.47632 -58.79185,-156.2434 28.83877,-41.06492 83.51262,-55.02138 128.02703,-32.68115 24.91225,12.50259 42.52139,33.01376 51.47024,59.95266 3.7852,11.39463 4.16335,14.04715 4.22551,29.6398 0.0555,13.91587 -0.48251,19.04872 -2.87077,27.38913 -8.5895,29.99662 -29.59519,54.32505 -57.58609,66.6952 -18.30214,8.08835 -44.29346,10.20386 -64.47407,5.24776 z"
     id="path1303"
     class="UnoptimicedTransforms"
     transform="matrix(0.3868311,0,0,0.36097523,453.75497,407.31597)"
     inkscape:highlight-color="#ffffff" /></svg>
