<?xml version="1.0" encoding="UTF-8" standalone="no"?>
<!-- Generator: Adobe Illustrator 21.0.0, SVG Export Plug-In . SVG Version: 6.00 Build 0)  -->

<svg
   version="1.1"
   id="Layer_1"
   x="0px"
   y="0px"
   viewBox="0 0 1388.8847 690.68469"
   xml:space="preserve"
   sodipodi:docname="icon.svg"
   width="1388.8848"
   height="690.68469"
   inkscape:version="1.2.1 (9c6d41e410, 2022-07-14)"
   xmlns:inkscape="http://www.inkscape.org/namespaces/inkscape"
   xmlns:sodipodi="http://sodipodi.sourceforge.net/DTD/sodipodi-0.dtd"
   xmlns="http://www.w3.org/2000/svg"
   xmlns:svg="http://www.w3.org/2000/svg"><defs
   id="defs29" /><sodipodi:namedview
   id="namedview27"
   pagecolor="#ffffff"
   bordercolor="#666666"
   borderopacity="1.0"
   inkscape:showpageshadow="2"
   inkscape:pageopacity="0.0"
   inkscape:pagecheckerboard="0"
   inkscape:deskcolor="#d1d1d1"
   showgrid="false"
   inkscape:zoom="0.70909476"
   inkscape:cx="709.35512"
   inkscape:cy="458.33085"
   inkscape:window-width="2560"
   inkscape:window-height="1369"
   inkscape:window-x="-8"
   inkscape:window-y="-8"
   inkscape:window-maximized="1"
   inkscape:current-layer="Layer_1" />
<g
   id="g24"
   transform="translate(-13.9,267.39566)">
	<path
   d="m 13.9,224.4 c 0.6,-0.4 1.6,-0.8 1.7,-1.3 6,-30.7 28.6,-43 55.7,-49.7 13.7,-3.4 27.9,-5.2 42.2,-5.1 33.3,0 66.6,0 99.8,0.1 3,0 7.4,-1.9 9,1.9 1.4,3.2 -1.5,6.4 -3.4,9.1 -8.3,12.1 -20.3,18.4 -34.6,20.4 -10.4,1.5 -20.8,1.7 -31.3,1.5 -13,-0.2 -25.2,2.7 -36.6,8.8 -23.3,12.6 -25.2,39.1 -4,54.8 13.3,9.8 28.6,14.4 44.6,16.8 20.2,3 40.2,2.1 59.5,-5.4 32.3,-12.4 46.3,-38.6 38.9,-72.4 -3.9,-17.6 -10.4,-34.2 -16.8,-50.9 -7.2,-18.8 -14.1,-37.8 -14,-58.4 0.2,-25.2 11.7,-43.4 33.8,-55.2 20.6,-11.1 43.1,-14.7 65.8,-16 25,-1.5 50,-2.7 75,1.3 13.8,2.2 27,6.3 38.4,14.6 24,17.5 18.8,51 -6.8,66.3 -2.3,1.4 -5,1.4 -7.6,1.4 -19.4,0 -38.9,0.1 -58.3,-0.1 -8.8,-0.1 -9,-0.6 -4.9,-8.9 5.5,-11 11.1,-22 16.6,-33.1 1.4,-2.8 2.6,-6.3 -2.4,-6.2 -16.4,0.3 -32.9,-1.9 -49.2,1.3 -14,2.8 -19.6,10.1 -19.4,24.4 0.2,11.8 4.7,22.5 8.5,33.5 8.2,24 18.9,47.1 24.2,72.1 9,42.9 -5.9,76.5 -44,98.3 -24.7,14.1 -51.6,21.7 -79.6,25 -46.9,5.6 -93.2,2.9 -138.1,-12.8 -20.2,-7.1 -39.2,-16.5 -52,-35.2 -4.9,-7.2 -5.4,-16 -10.5,-22.9 -0.2,-6.1 -0.2,-12 -0.2,-18 z"
   id="path20" />
	<path
   d="m 817.4,271.8 c 13.1,0 26.2,-0.4 39.3,0.1 7.1,0.3 10.3,-1.9 12.7,-8.9 22.1,-63.4 44.8,-126.6 66.9,-190 2.7,-7.9 6.2,-11.2 14.9,-10.8 17.5,0.7 35.2,0.2 52.7,0.2 9.3,0 9.4,0.2 6.2,9.2 -18.2,51 -36.4,101.9 -54.6,152.9 -4.4,12.3 -8.8,24.6 -13.1,36.9 -3.2,9.3 -3,9.6 6.3,9.7 15,0.1 29.9,-0.3 44.9,0.2 6.5,0.2 9.1,-2.4 11.1,-8.2 22,-62.7 44.1,-125.3 66.5,-187.9 5.1,-14.4 1.5,-12.8 17.6,-12.9 16.1,-0.1 32.2,0 48.3,0 11.6,0 11.8,0.1 8,10.7 -17.8,49.9 -35.6,99.8 -53.4,149.7 -4.9,13.7 -9.6,27.5 -14.7,41.1 -2.1,5.5 -1,7.4 5,7.3 13.8,-0.2 27.7,-0.3 41.5,0 5.5,0.1 7.3,-2.2 9,-7.3 10.1,-29.3 20.9,-58.3 31.2,-87.5 2.1,-6.1 4.7,-9 11.8,-8.8 19.1,0.6 38.1,0.1 57.2,0.2 9.1,0 9.1,0.2 5.9,9.2 -10.2,28.5 -20.5,56.9 -30.6,85.4 -3,8.4 -2.9,8.6 6,8.6 10.1,0 22,2.9 29.7,-1.4 7.9,-4.4 8.2,-17.5 11.6,-26.9 8.2,-22.4 16.3,-44.9 23.9,-67.5 1.9,-5.6 4.6,-7.6 10.4,-7.5 19.4,0.3 38.9,0.4 58.3,0 7.1,-0.1 8.1,1.8 5.7,8.2 -10.1,27.7 -19.8,55.5 -29.6,83.3 -4.2,11.9 -4.2,11.9 8.9,11.9 20.9,0 41.9,-0.1 62.8,0 8.4,0 8.5,0.3 4.6,8 -8.8,17.7 -24,24.9 -42.9,25.2 -12.7,0.2 -25.5,0.5 -38.1,-0.1 -7.5,-0.4 -11.4,1.8 -14,9.2 -6.1,17.3 -14.1,33.8 -24.1,49.2 -16.1,24.6 -37.6,41.2 -67.8,44.7 -10.2,1.2 -20.2,0.6 -29.9,-2.5 -23.8,-7.7 -36,-30.3 -30.9,-57.5 2.5,-13.4 7.2,-25.9 16.5,-36.3 1.2,-1.3 3.2,-2.7 2.6,-4.7 -0.9,-2.8 -3.7,-1.8 -5.7,-1.9 -7.5,-0.3 -15,-1.1 -21.5,-5.2 -3.7,-2.3 -7,-1.8 -10.5,-0.2 -10.1,4.5 -20.9,5.4 -31.8,5.4 -22.4,0 -44.9,0.1 -67.3,0 -9.7,0 -19.6,-0.1 -28,-6.1 -3.2,-2.3 -5.6,-0.6 -8.2,0.6 -10.1,4.6 -20.6,6 -31.6,6 -141.4,-0.1 -282.8,-0.1 -424.2,-0.1 -5.2,0 -10.4,0.3 -15.6,-1.2 -10.8,-3 -14.6,-8.3 -13.3,-19.6 1.5,-12.8 7.1,-24.3 10.7,-36.4 0.9,-2.9 2,-5.6 2.9,-8.5 0.3,-1 0.3,-2.5 -0.3,-3.1 -1.3,-1.5 -2.7,-0.1 -3.7,0.7 -4.1,3.2 -8.1,6.6 -12.2,9.9 -18.4,15.2 -37,30.4 -55.3,45.8 -10.2,8.5 -21.6,13 -35,12.5 -9.7,-0.3 -19.5,-0.4 -29.2,0 -6.6,0.3 -7.5,-1.7 -5.3,-7.6 9.4,-26 18.4,-52.1 27.7,-78.1 17.5,-49.2 35.2,-98.4 52.3,-147.7 2.4,-6.8 5.2,-9.5 12.5,-9.3 17.9,0.5 35.9,0.1 53.9,0.2 9.5,0 9.7,0.2 6.5,9.2 -15.3,43.7 -30.7,87.3 -46.1,130.9 -2.2,6.3 -4.5,12.7 -6.8,19 -0.8,2.1 -2.1,4.3 -0.2,6.1 0.3,0.3 3.1,-1.6 4.5,-2.8 15.6,-12.7 31.2,-25.6 46.9,-38.3 16.7,-13.6 36,-19.3 57.3,-18.3 19.1,1 25.8,10 19.8,27.9 -7.5,22.3 -15.5,44.4 -23.2,66.6 -3.1,8.8 -2.9,8.9 6.5,8.9 16.5,0.1 32.9,-0.1 49.4,0.1 5.4,0.1 7.1,-1 5.5,-7 -8.9,-33.5 1.8,-60.3 30.8,-79 16.4,-10.6 34.5,-16.6 53.8,-17.2 23.1,-0.6 46.3,-2.5 69.4,1.8 8.9,1.6 17.3,4.3 25.3,8.7 25.8,14.3 26.9,47.5 1.6,62.8 -16,9.7 -34,15.4 -51.2,22.6 -3.1,1.3 -6.3,2.4 -9.3,3.8 -1.2,0.6 -7.6,3.2 -7.6,3.2 0,0 6.8,0.1 8.1,0.1 14.2,0.4 28.8,0.4 43.4,0.4 z m -52.9,-70.6 c -3,0 -6,0.3 -9,-0.1 -8.2,-1 -12.9,1.4 -15,10.3 -2.7,11.5 -7.4,22.6 -11.2,33.9 -5.6,17 -0.4,25 17.3,26.2 2.2,0.2 4,0.3 6.7,0.2 5.6,-0.1 8.7,-1.2 10.6,-7 6.2,-18.4 13.1,-36.4 19.7,-54.7 3.1,-8.7 2.9,-8.8 -6.8,-8.9 -4.1,0.1 -8.2,0.1 -12.3,0.1 z m 462.7,109.2 c -1.5,0.6 -3.4,1.1 -5,2.1 -15.7,10.1 -24.7,24.3 -25.3,43.2 -0.2,5.9 2.2,10.8 6,15.2 3.2,3.7 5.5,4.7 7.5,-1.1 4.3,-12.3 8.9,-24.4 13.4,-36.6 2.2,-5.9 4.5,-11.8 6.5,-17.8 0.6,-2.2 1.9,-5.6 -3.1,-5 z"
   id="path22" />
</g>
<g
   id="g348"
   transform="matrix(0.96542786,0,0,0.96542786,472.07734,-79.378205)"><g
     fill="#231f20"
     id="g346"><path
       d="m 211.3,156.2 c -45.3,0 -85.5,28.9 -100,71.8 -1.3,3.8 -4.7,6.6 -8.7,7 -40.3,4.4 -70.7,38.3 -70.7,78.9 0,43.8 35.6,79.4 79.4,79.4 h 289.4 c 43.8,0 79.4,-35.6 79.4,-79.4 0,-29.4 -16.2,-56.3 -42.2,-70.2 -3.7,-2 -5.9,-6 -5.5,-10.2 0.3,-3.1 0.5,-6.3 0.5,-9.5 0,-58.2 -47.4,-105.6 -105.6,-105.6 -31,0 -60.4,13.6 -80.5,37.4 -2.5,3 -6.6,4.3 -10.4,3.4 -8.6,-1.9 -17,-3 -25.1,-3 z M 400.7,414.3 H 111.3 C 56,414.3 11,369.3 11,314 c 0,-49.1 35.2,-90.4 82.8,-98.7 19,-48 65.4,-79.9 117.5,-79.9 7.8,0 15.7,0.8 23.8,2.4 23.9,-25.5 57.2,-40 92.2,-40 69.7,0 126.4,56.7 126.4,126.4 0,1.6 0,3.1 -0.1,4.7 29.4,18.2 47.4,50.2 47.4,85.1 0,55.3 -45,100.3 -100.3,100.3 z"
       id="path342" /><path
       d="m 211.3,156.2 c -45.3,0 -85.5,28.9 -100,71.8 -1.3,3.8 -4.7,6.6 -8.7,7 -40.3,4.4 -70.7,38.3 -70.7,78.9 0,43.8 35.6,79.4 79.4,79.4 h 289.4 c 43.8,0 79.4,-35.6 79.4,-79.4 0,-29.4 -16.2,-56.3 -42.2,-70.2 -3.7,-2 -5.9,-6 -5.5,-10.2 0.3,-3.1 0.5,-6.3 0.5,-9.5 0,-58.2 -47.4,-105.6 -105.6,-105.6 -31,0 -60.4,13.6 -80.5,37.4 -2.5,3 -6.6,4.3 -10.4,3.4 -8.6,-1.9 -17,-3 -25.1,-3 z M 400.7,414.3 H 111.3 C 56,414.3 11,369.3 11,314 c 0,-49.1 35.2,-90.4 82.8,-98.7 19,-48 65.4,-79.9 117.5,-79.9 7.8,0 15.7,0.8 23.8,2.4 23.9,-25.5 57.2,-40 92.2,-40 69.7,0 126.4,56.7 126.4,126.4 0,1.6 0,3.1 -0.1,4.7 29.4,18.2 47.4,50.2 47.4,85.1 0,55.3 -45,100.3 -100.3,100.3 z"
       id="path344" /></g></g></svg>
