<?xml version="1.0" encoding="UTF-8" standalone="no"?>
<svg
   xmlns:dc="http://purl.org/dc/elements/1.1/"
   xmlns:cc="http://creativecommons.org/ns#"
   xmlns:rdf="http://www.w3.org/1999/02/22-rdf-syntax-ns#"
   xmlns:svg="http://www.w3.org/2000/svg"
   xmlns="http://www.w3.org/2000/svg"
   id="svg8"
   version="1.1"
   viewBox="0 0 41.256305 75.915398"
   height="75.915398mm"
   width="41.256306mm">
  <defs
     id="defs2" />
  <metadata
     id="metadata5">
    <rdf:RDF>
      <cc:Work
         rdf:about="">
        <dc:format>image/svg+xml</dc:format>
        <dc:type
           rdf:resource="http://purl.org/dc/dcmitype/StillImage" />
        <dc:title></dc:title>
      </cc:Work>
    </rdf:RDF>
  </metadata>
  <g
     transform="translate(-95.085261,-104.25425)"
     id="layer1">
    <path
       id="path826"
       d="m 114.06376,179.48206 c 0.1819,-0.0734 0.47956,-0.0734 0.66146,0 0.1819,0.0734 0.0331,0.13345 -0.33073,0.13345 -0.3638,0 -0.51263,-0.06 -0.33073,-0.13345 z m 2.39779,-0.006 c 0.19099,-0.0764 0.4192,-0.067 0.50712,0.0209 0.0879,0.0879 -0.0684,0.15045 -0.34727,0.13896 -0.30822,-0.0127 -0.37092,-0.0754 -0.15985,-0.15985 z m 1.64688,-0.8391 c 0.3071,-0.63368 0.43877,-1.07822 0.29258,-0.98788 -0.14618,0.0904 -0.34057,0.0433 -0.43198,-0.10463 -0.0925,-0.14968 0.0812,-0.2689 0.39174,-0.2689 0.55148,0 2.11914,-0.69008 2.11914,-0.93284 0,-0.069 -2.23242,-0.12285 -4.96094,-0.11961 l -4.96094,0.006 0.66146,0.5174 c 0.3638,0.28457 1.01865,0.53386 1.45521,0.55398 0.45321,0.0209 0.5951,0.0885 0.33073,0.15757 -0.57187,0.14945 -0.57827,0.32908 -0.0392,1.09877 0.67187,0.95922 0.24575,0.94885 -0.54294,-0.0132 -0.39275,-0.47909 -1.03264,-1.05866 -1.42198,-1.28793 -0.38935,-0.22928 -0.74595,-0.67576 -0.79245,-0.99219 -0.0741,-0.50452 0.0398,-0.57581 0.92604,-0.57923 l 1.01059,-0.004 -0.66145,-0.38874 c -0.36381,-0.21381 -0.86982,-0.46407 -1.12448,-0.55613 -0.67283,-0.24322 -0.57375,-0.90287 0.13229,-0.88081 0.54525,0.017 0.55244,0.0354 0.0855,0.21831 -0.4731,0.18534 -0.4763,0.21259 -0.0445,0.37828 0.85522,0.32818 0.98002,0.12343 0.72039,-1.18182 -0.0186,-0.0934 -0.33142,-0.24446 -0.69523,-0.33577 -0.3638,-0.0913 -0.66145,-0.35722 -0.66145,-0.59092 0,-0.33177 0.1754,-0.38983 0.80021,-0.26487 0.73373,0.14675 0.77692,0.11653 0.51985,-0.3638 -0.15419,-0.28813 -0.51428,-0.52386 -0.80021,-0.52386 -0.63108,0 -0.69849,-0.72031 -0.0787,-0.8405 0.24266,-0.0471 0.46101,-0.35518 0.48523,-0.68474 0.0345,-0.46903 -0.0614,-0.56574 -0.4412,-0.44519 -0.26688,0.0847 -0.48523,0.0269 -0.48523,-0.12841 0,-0.15533 0.17859,-0.28241 0.39687,-0.28241 0.21828,0 0.39688,-0.23273 0.39688,-0.51718 0,-0.39368 -0.23692,-0.55419 -0.99219,-0.67217 -2.44254,-0.38157 -2.90102,-0.61752 -3.34214,-1.71999 -1.63943,-4.09735 -3.03865,-10.76375 -3.74876,-17.86045 -0.27736,-2.77185 -0.63885,-4.98008 -0.942,-5.75436 -0.27057,-0.69105 -0.85739,-2.71511 -1.30405,-4.49792 -1.02576,-4.09418 -2.834599,-10.24918 -4.214721,-14.34158 -1.175309,-3.48508 -1.234909,-3.93879 -0.644594,-4.90718 0.401076,-0.65796 0.402521,-0.65623 0.272658,0.32569 -0.09681,0.73198 0.243967,2.13401 1.318332,5.42395 0.796885,2.44025 2.097106,6.8776 2.889382,9.86077 0.792273,2.98318 1.738563,6.31824 2.102853,7.41124 0.45552,1.36672 0.83242,3.55615 1.20699,7.01146 0.7801,7.19622 2.28352,14.03324 3.69364,16.79729 0.64482,1.26397 0.72048,1.31057 2.44152,1.50414 1.63764,0.18418 2.05683,0.4506 2.05683,1.30723 0,0.54494 0.12636,0.62906 0.94497,0.62906 0.87512,0 0.93869,-0.0538 0.8599,-0.72761 l -0.0851,-0.7276 h 2.11666 c 2.11241,0 2.11684,0.002 2.20039,0.7276 0.0732,0.63623 0.19782,0.72761 0.99219,0.72761 0.77158,0 0.90847,-0.0917 0.90847,-0.60854 0,-0.87628 0.4858,-1.23919 1.70656,-1.27485 2.22234,-0.0649 2.50324,-0.23595 3.2078,-1.95307 1.98734,-4.84354 3.49901,-12.28303 3.94369,-19.40842 0.0759,-1.21579 0.42847,-3.18032 0.78353,-4.36563 0.35507,-1.18531 1.19834,-4.17918 1.87392,-6.65303 1.5225,-5.57506 4.0065,-13.27077 4.56898,-14.15521 0.23137,-0.3638 0.39737,-1.01865 0.36889,-1.45521 -0.0394,-0.60458 0.0106,-0.69916 0.21004,-0.39687 0.33274,0.50439 0.34406,1.40657 0.0217,1.73302 -0.57864,0.58603 -3.66414,10.76219 -6.49414,21.41802 -0.34783,1.30969 -0.76034,3.92906 -0.91669,5.82083 -0.55456,6.70987 -1.83246,13.05941 -3.50443,17.4126 -0.88012,2.29149 -1.07558,2.44245 -3.53707,2.73175 -1.14694,0.1348 -1.43908,0.26584 -1.43908,0.64554 0,0.3539 0.18443,0.46359 0.71724,0.42659 0.49575,-0.0344 0.74685,0.0932 0.81315,0.41321 0.0669,0.32293 -0.0701,0.46302 -0.45265,0.46302 -0.30172,0 -0.54858,0.12609 -0.54858,0.2802 0,0.15411 -0.14883,0.19455 -0.33073,0.0899 -0.1927,-0.11089 -0.23793,-0.0898 -0.10838,0.0505 0.12229,0.13247 0.47947,0.24086 0.79375,0.24086 0.86838,0 0.70211,0.76571 -0.20052,0.92344 -0.9423,0.16466 -1.19992,0.72304 -0.38853,0.8421 0.89301,0.13103 0.85614,0.55748 -0.0981,1.13508 l -0.85808,0.51937 0.79375,0.10078 0.79375,0.10078 -0.79375,0.36117 -0.79375,0.36116 0.79375,-0.15268 0.79375,-0.15267 -0.9113,0.69271 -0.9113,0.69272 h 0.86355 c 0.74161,0 0.85162,0.0831 0.77901,0.58869 -0.0465,0.32377 -0.37056,0.73074 -0.72012,0.90436 -0.34957,0.17363 -1.09808,0.83145 -1.66336,1.46183 l -1.02779,1.14616 0.55837,-1.15214 z m -0.47279,-2.85956 c -0.1819,-0.0734 -0.47956,-0.0734 -0.66146,0 -0.1819,0.0734 -0.0331,0.13345 0.33073,0.13345 0.3638,0 0.51263,-0.06 0.33073,-0.13345 z m -4.29948,-0.48623 c 0.27917,-0.33638 0.21868,-0.39687 -0.39688,-0.39687 -0.61555,0 -0.67605,0.0605 -0.39687,0.39687 0.18116,0.21828 0.35975,0.39688 0.39687,0.39688 0.0371,0 0.21572,-0.1786 0.39688,-0.39688 z m 3.11359,-0.0568 c -0.39757,-0.0604 -1.11195,-0.0616 -1.5875,-0.003 -0.47555,0.0589 -0.15026,0.10828 0.72287,0.10977 0.87312,0.002 1.26221,-0.0467 0.86463,-0.10707 z m 2.44266,-0.0755 c 0.29461,-0.19039 0.13719,-0.25753 -0.61093,-0.26053 -0.60536,-0.002 -0.9425,0.1016 -0.84428,0.26053 0.20667,0.3344 0.93777,0.3344 1.45521,0 z m -2.11667,-0.52917 c -0.21828,-0.14106 -1.23031,-0.24643 -2.24896,-0.23416 -1.3261,0.016 -1.66423,0.0825 -1.19062,0.23416 0.99331,0.31812 3.93183,0.31812 3.43958,0 z m 1.78043,-0.15985 c -0.0879,-0.0879 -0.31613,-0.0973 -0.50712,-0.0209 -0.21107,0.0845 -0.14837,0.14716 0.15985,0.15985 0.27892,0.0115 0.43519,-0.051 0.34727,-0.13896 z m -5.56471,-1.21817 c -0.17422,-0.11076 0.87387,-0.22009 2.32907,-0.24297 1.89392,-0.0298 2.34507,-0.0923 1.5875,-0.22011 l -1.05833,-0.1785 0.92604,-0.13848 c 0.50932,-0.0762 -0.086,-0.14064 -1.32291,-0.14328 -1.78163,-0.004 -2.02904,0.0375 -1.19063,0.19885 0.9801,0.18859 0.94769,0.20049 -0.43837,0.16089 -0.82319,-0.0235 -1.44124,0.0465 -1.37345,0.15568 0.0678,0.10915 -0.0921,0.20599 -0.35538,0.21521 -0.38545,0.0135 -0.36273,0.0634 0.11668,0.25606 0.32742,0.13161 0.59714,0.39195 0.59936,0.57854 0.003,0.24082 0.0756,0.22613 0.25062,-0.0506 0.16261,-0.25714 0.13871,-0.45845 -0.0702,-0.59125 z m 3.32126,0.13296 c -0.32742,-0.0631 -0.8632,-0.0631 -1.19062,0 -0.32743,0.0631 -0.0595,0.11467 0.59531,0.11467 0.65484,0 0.92273,-0.0516 0.59531,-0.11467 z m 2.57969,-0.0779 c 0.48365,-0.31256 0.0659,-0.31256 -0.66146,0 -0.34892,0.14993 -0.39398,0.23234 -0.13229,0.24193 0.21828,0.008 0.57547,-0.10087 0.79375,-0.24193 z m -7.27604,-0.52917 c 0.0912,-0.14754 -0.10674,-0.26279 -0.44741,-0.26053 -0.4915,0.003 -0.53334,0.0542 -0.21405,0.26053 0.49232,0.31816 0.46482,0.31816 0.66146,0 z m 7.20438,-0.15985 c -0.0879,-0.0879 -0.31612,-0.0973 -0.50712,-0.0209 -0.21106,0.0845 -0.14837,0.14716 0.15986,0.15985 0.27891,0.0115 0.43518,-0.0511 0.34726,-0.13896 z m 1.46072,-0.0154 c -0.1819,-0.0734 -0.47956,-0.0734 -0.66146,0 -0.1819,0.0734 -0.0331,0.13346 0.33073,0.13346 0.3638,0 0.51263,-0.0601 0.33073,-0.13346 z m -6.94531,-0.86786 c 0,-0.11996 -0.23101,-0.27852 -0.51336,-0.35236 -0.43989,-0.11503 -0.47018,-0.0651 -0.21163,0.34891 0.28831,0.46165 0.72499,0.46373 0.72499,0.003 z m 5.38735,0.11705 c 0.0918,-0.23933 10e-4,-0.39688 -0.22798,-0.39688 -0.22931,0 -0.31981,0.15755 -0.22797,0.39688 0.0838,0.21828 0.18635,0.39687 0.22797,0.39687 0.0416,0 0.14421,-0.17859 0.22798,-0.39687 z m -2.30466,-0.18395 c -0.51353,-0.18699 -1.01949,-0.18894 -1.5875,-0.006 -0.76088,0.2449 -0.69502,0.26888 0.75377,0.27447 1.40082,0.005 1.49886,-0.0261 0.83373,-0.26834 z m 1.15064,-0.44289 c 0,-0.35424 -1.85088,-0.57277 -3.0379,-0.35867 -0.97931,0.17664 -0.90667,0.20365 0.92124,0.34253 1.0914,0.0829 2.01414,0.17222 2.05052,0.19844 0.0364,0.0262 0.0661,-0.0558 0.0661,-0.1823 z m 2.61547,-0.72439 c -0.3471,-0.1924 -0.80969,-0.34566 -1.02797,-0.34059 -0.25768,0.006 -0.21128,0.089 0.13229,0.23661 0.48777,0.2096 0.47742,0.2303 -0.13229,0.26458 -0.58306,0.0328 -0.60089,0.0609 -0.15047,0.23732 0.28104,0.11007 0.80316,0.14428 1.16026,0.076 l 0.64928,-0.12411 z m -8.70088,0.1606 c 0,-0.31054 -0.20337,-0.31054 -0.92605,0 -0.4689,0.2015 -0.44631,0.22951 0.19844,0.24599 0.40018,0.0102 0.72761,-0.10047 0.72761,-0.24599 z m 1.5875,-0.37523 c 0,-0.0609 0.0723,-0.29899 0.16059,-0.52917 0.12695,-0.33082 -0.0255,-0.41766 -0.7276,-0.41446 -0.64314,0.003 -0.78219,0.0711 -0.50396,0.24712 0.21133,0.13369 0.47922,0.18437 0.59531,0.11263 0.11609,-0.0717 0.21107,-0.0143 0.21107,0.1277 0,0.14198 -0.14883,0.3182 -0.33073,0.3916 -0.19757,0.0797 -0.14431,0.14186 0.13229,0.15434 0.25467,0.0115 0.46303,-0.0289 0.46303,-0.0898 z m 5.75943,-0.41852 c 0.30872,-0.49434 0.26502,-0.52855 -0.66396,-0.51979 -0.94533,0.009 -0.96463,0.0259 -0.39082,0.34448 0.33198,0.18431 0.5205,0.41821 0.41892,0.51979 -0.10158,0.10158 -0.0744,0.18469 0.0603,0.18469 0.13477,0 0.39375,-0.23813 0.57551,-0.52917 z m -2.3919,0.0715 c -0.54895,-0.0573 -1.38238,-0.0563 -1.85208,0.002 -0.4697,0.0585 -0.0206,0.10531 0.99809,0.10414 1.01864,-0.001 1.40294,-0.049 0.85399,-0.10628 z m 0.0106,-0.52512 c -0.39758,-0.0604 -1.11195,-0.0616 -1.5875,-0.003 -0.47555,0.0589 -0.15026,0.10828 0.72286,0.10976 0.87313,0.002 1.26222,-0.0467 0.86464,-0.10706 z m 4.22308,-0.23539 c -0.0879,-0.0879 -0.31612,-0.0973 -0.50712,-0.0209 -0.21106,0.0845 -0.14837,0.14715 0.15986,0.15985 0.27891,0.0115 0.43518,-0.0511 0.34726,-0.13897 z m -3.68025,-0.83233 c 0.079,-0.55657 -0.0119,-0.59531 -1.39736,-0.59531 -1.11471,0 -1.5222,0.10496 -1.64446,0.42357 -0.23507,0.61258 0.40378,0.91488 1.76665,0.83598 1.00809,-0.0584 1.20359,-0.16019 1.27517,-0.66424 z m 13.93837,-49.80781 c -0.72389,-0.1842 -0.68896,-0.20438 0.39687,-0.22923 0.65485,-0.015 1.36922,0.0882 1.5875,0.22923 0.3018,0.19503 0.20671,0.24995 -0.39687,0.22922 -0.43656,-0.015 -1.15094,-0.11814 -1.5875,-0.22922 z m -30.34223,-1.19063 c 0.27437,-0.16338 5.40317,-0.2983 13.4089,-0.35273 12.26024,-0.0834 17.33025,0.0461 17.33017,0.44263 -2e-5,0.0961 -7.01629,0.17469 -15.59171,0.17469 -10.51427,0 -15.44698,-0.0862 -15.14736,-0.26459 z"
       style="fill:#000000;stroke-width:0.26458332" />
    <path
       id="path832"
       d="m 121.80809,167.34087 c -0.33409,9.2542 -0.46772,9.08716 -0.46772,9.08716 0,0 -3.79042,3.36107 -3.79042,3.36107 l -4.3279,0.0466 -3.30746,-3.17383 -0.13363,-9.2542"
       style="fill:none;stroke:#000000;stroke-width:0.66500002;stroke-linecap:butt;stroke-linejoin:miter;stroke-miterlimit:4;stroke-dasharray:none;stroke-opacity:1" />
    <path
       id="path834"
       d="m 136.107,118.86486 c 0,0 -0.0668,-5.34539 -0.26726,-9.08716 -0.20046,-3.74178 -8.61945,-5.21176 -8.61945,-5.21176 0,0 -19.71112,-0.40091 -26.66013,0.60135 -6.949009,1.00227 -5.011309,12.36122 -4.944489,12.62849 3e-6,1.5368 3e-6,1.5368 3e-6,1.5368"
       style="fill:none;stroke:#000000;stroke-width:0.465;stroke-linecap:butt;stroke-linejoin:miter;stroke-miterlimit:4;stroke-dasharray:none;stroke-opacity:1" />
    <path
       id="path836"
       d="m 102.29741,144.32228 c 0.40091,-0.0334 6.78197,0.0668 6.78197,0.0668 0,0 0.33408,-4.07586 3.57473,-4.24291 3.24064,-0.16704 6.58151,0.0334 6.58151,0.0334 0,0 3.25281,-0.23295 3.44109,3.90882 0.0334,0.73499 5.91334,0.30068 5.91334,0.30068"
       style="fill:none;stroke:#000000;stroke-width:0.565;stroke-linecap:butt;stroke-linejoin:miter;stroke-miterlimit:4;stroke-dasharray:none;stroke-opacity:1" />
    <path
       id="path840"
       d="m 109.78096,167.40767 c -5.2233,-23.01556 -5.2233,-23.01556 -5.2233,-23.01556"
       style="fill:none;stroke:#000000;stroke-width:0.26458332px;stroke-linecap:butt;stroke-linejoin:miter;stroke-opacity:1" />
    <path
       id="path842"
       d="m 126.38579,144.72284 -4.5777,22.61803"
       style="fill:none;stroke:#000000;stroke-width:0.26458332px;stroke-linecap:butt;stroke-linejoin:miter;stroke-opacity:1" />
    <path
       id="path844"
       d="m 109.06043,144.38083 c 0.14845,0.33029 2.44945,23.16748 2.44945,23.16748"
       style="fill:none;stroke:#000000;stroke-width:0.23434156px;stroke-linecap:butt;stroke-linejoin:miter;stroke-opacity:1" />
    <path
       id="path846"
       d="m 112.7314,140.37611 0.47238,26.97757"
       style="fill:none;stroke:#000000;stroke-width:0.26458332px;stroke-linecap:butt;stroke-linejoin:miter;stroke-opacity:1" />
    <path
       id="path848"
       d="m 116.08594,140.18713 c -0.0945,0.56696 -0.28349,27.40327 -0.28349,27.40327"
       style="fill:none;stroke:#000000;stroke-width:0.26458332px;stroke-linecap:butt;stroke-linejoin:miter;stroke-opacity:1" />
    <path
       id="path850"
       d="m 119.23571,140.17963 -1.49622,27.36346"
       style="fill:none;stroke:#000000;stroke-width:0.26368991px;stroke-linecap:butt;stroke-linejoin:miter;stroke-opacity:1" />
    <path
       id="path852"
       d="m 122.65327,144.01414 c -0.18899,0.28348 -3.1183,23.57626 -3.1183,23.57626"
       style="fill:none;stroke:#000000;stroke-width:0.26458332px;stroke-linecap:butt;stroke-linejoin:miter;stroke-opacity:1" />
    <path
       id="path854"
       d="m 109.3585,167.28177 c 0.17718,0 12.44959,0.0591 12.44959,0.0591"
       style="fill:none;stroke:#000000;stroke-width:0.565;stroke-linecap:butt;stroke-linejoin:miter;stroke-miterlimit:4;stroke-dasharray:none;stroke-opacity:1" />
    <path
       id="path856"
       d="m 110.29879,176.66189 c 0,-0.039 0,-0.0779 0,-0.11693 0,-0.006 0,-0.0111 0,-0.0167 0,-0.006 0.002,-0.0117 0,-0.0167 -0.004,-0.007 -0.0132,-0.01 -0.0167,-0.0167 -0.002,-0.004 0,-0.0884 0,-0.10023 0,-0.006 0,-0.0111 0,-0.0167 0,-0.006 0.004,-0.0128 0,-0.0167 -0.004,-0.004 -0.0114,0.002 -0.0167,0 -0.0118,-0.004 -0.0216,-0.0128 -0.0334,-0.0167 -0.0105,-0.003 -0.0534,0 -0.0668,0 -0.006,0 -0.0142,-0.005 -0.0167,0 -10e-4,0.003 0,0.0789 0,0.0835 0,0.006 -7.9e-4,0.0661 0,0.0668 0.004,0.004 0.0127,-0.004 0.0167,0 0.004,0.004 -0.004,0.0128 0,0.0167 0.008,0.008 0.0234,-0.005 0.0334,0 0.007,0.004 0.01,0.0132 0.0167,0.0167 0.005,0.002 0.0121,-0.003 0.0167,0 0.0131,0.009 0.0223,0.0223 0.0334,0.0334 0.006,0.006 0.009,0.0142 0.0167,0.0167 0.076,0 0.001,-0.008 0.0501,0.0167 0.005,0.002 0.0111,0 0.0167,0 0.006,0 0.0142,0.005 0.0167,0 0.002,-0.004 0,-0.0558 0,-0.0668 0,-0.006 0,-0.0111 0,-0.0167 0,-0.006 0.004,-0.0128 0,-0.0167 -0.004,-0.004 -0.0111,0 -0.0167,0 -0.0229,0 -0.0541,-0.009 -0.0668,0.0167 -0.002,0.005 0,0.0111 0,0.0167 0,0.0157 -0.003,0.0346 0,0.0501 0.005,0.028 0.0167,0.0551 0.0167,0.0835 0,0.0394 -0.0111,0.078 -0.0167,0.11693"
       style="fill:none;stroke:#000000;stroke-width:0.26458332px;stroke-linecap:butt;stroke-linejoin:miter;stroke-opacity:1" />
    <path
       id="path860"
       d="m 111.16742,177.31336 c 0.0223,0.0167 0.0445,0.0334 0.0668,0.0501 0.006,0.0111 0.008,0.0246 0.0167,0.0334 0.0142,0.0142 0.0359,0.0192 0.0501,0.0334 0.009,0.009 0.009,0.0234 0.0167,0.0334 0.009,0.0126 0.0247,0.0203 0.0334,0.0334 0.003,0.005 -0.002,0.0117 0,0.0167 0.0348,0.0695 -10e-4,-0.0179 0.0334,0.0167 0.009,0.009 0.0111,0.0223 0.0167,0.0334 0.006,0.0111 0.0137,0.0213 0.0167,0.0334 0.003,0.0108 -0.006,0.0239 0,0.0334 0.0122,0.0203 0.0396,0.029 0.0501,0.0501 0.007,0.0149 -0.005,0.0343 0,0.0501 0.006,0.019 0.0244,0.0322 0.0334,0.0501 0.008,0.0157 0.0102,0.0338 0.0167,0.0501 0.005,0.0116 0.0137,0.0213 0.0167,0.0334 0,0.1108 -0.008,-0.0236 0.0167,0.0501 0.004,0.0106 -0.006,0.0242 0,0.0334 0.007,0.0104 0.0246,0.008 0.0334,0.0167 0.0146,0.0146 0.0269,0.0705 0.0334,0.0835 0.073,0.1459 -0.005,0.002 0.0668,0.0501 0.0104,0.007 0.008,0.0246 0.0167,0.0334 0.003,0.003 0.0943,0.0486 0.10023,0.0501 0.0108,0.003 0.0223,0 0.0334,0 0.0111,0.0111 0.0193,0.0264 0.0334,0.0334 0.01,0.005 0.0226,-0.003 0.0334,0 0.0121,0.003 0.0223,0.0111 0.0334,0.0167 0.0167,0 0.0337,-0.003 0.0501,0 0.0122,0.002 0.0219,0.0121 0.0334,0.0167 0.0163,0.007 0.0328,0.0133 0.0501,0.0167 0.0109,0.002 0.0223,0 0.0334,0 0.0223,0 0.0445,0 0.0668,0 0.006,0 0.0127,-0.004 0.0167,0 0.004,0.004 0.004,0.0128 0,0.0167 -0.004,0.004 -0.0142,0.005 -0.0167,0 -0.005,-0.01 0.004,-0.0228 0,-0.0334 -0.008,-0.0236 -0.0223,-0.0445 -0.0334,-0.0668 -0.006,-0.0111 -0.0137,-0.0213 -0.0167,-0.0334 -0.0169,-0.0675 0.0239,8e-4 -0.0167,-0.0668 -0.0103,-0.0172 -0.0255,-0.0317 -0.0334,-0.0501 -0.009,-0.0211 -0.003,-0.0481 -0.0167,-0.0668 -0.0162,-0.0226 -0.0471,-0.0304 -0.0668,-0.0501 -0.0142,-0.0142 -0.0192,-0.0359 -0.0334,-0.0501 -0.0142,-0.0142 -0.0347,-0.0206 -0.0501,-0.0334 -0.0182,-0.0151 -0.0305,-0.037 -0.0501,-0.0501 -0.0147,-0.01 -0.0334,-0.0111 -0.0501,-0.0167 -0.0167,-0.006 -0.033,-0.0124 -0.0501,-0.0167 -0.0108,-0.003 -0.0234,0.005 -0.0334,0 -0.007,-0.004 -0.009,-0.0142 -0.0167,-0.0167 -0.0106,-0.004 -0.0234,0.005 -0.0334,0 -0.01,-0.005 0.005,-0.0234 0,-0.0334 -0.004,-0.007 -0.0123,-0.0102 -0.0167,-0.0167 -0.007,-0.0104 -0.01,-0.023 -0.0167,-0.0334 -0.004,-0.007 -0.0111,-0.0111 -0.0167,-0.0167 -0.0111,-0.0111 -0.0203,-0.0247 -0.0334,-0.0334 -0.005,-0.003 -0.0121,0.003 -0.0167,0 -0.0131,-0.009 -0.0203,-0.0247 -0.0334,-0.0334 -0.007,-0.005 -0.0741,0.005 -0.0835,0 -0.0747,-0.0374 -0.004,-0.0334 -0.0501,-0.0334 -0.006,0 -0.0167,-0.006 -0.0167,0 0,0.0556 0.0635,0.087 0.0835,0.13363 0.0714,0.1666 -0.0805,-0.07 0.0167,0.10023 0.0167,0.0223 0.0334,0.0445 0.0501,0.0668 0,0.0111 -0.004,0.0231 0,0.0334 0.0114,0.0284 0.0951,0.1256 0.10023,0.13363 0.02,0.0315 0.032,0.0676 0.0501,0.10023 0.0301,0.0541 0.062,0.08 0.10023,0.13363 0.007,0.0101 0.01,0.0231 0.0167,0.0334 0.0256,0.0384 0.01,-0.007 0.0501,0.0334 0.004,0.004 -0.004,0.0128 0,0.0167 0.006,0.072 0.0595,0.0154 0.0835,0.0334 0.0161,0.012 0.0192,0.0359 0.0334,0.0501 0.009,0.009 0.0223,0.0111 0.0334,0.0167 0.0334,0.0167 0.0668,0.0334 0.10023,0.0501 0.0111,0.006 0.0265,0.006 0.0334,0.0167 0.006,0.009 -0.006,0.0241 0,0.0334 0.009,0.0128 0.0859,0.0358 0.10023,0.0501 0.009,0.009 0.01,0.0231 0.0167,0.0334 0.004,0.007 0.0111,0.0111 0.0167,0.0167 0.0167,0.0167 0.0353,0.0317 0.0501,0.0501 0.0368,0.008 0.009,0.0344 0.0167,0.0501 0.004,0.007 0.0132,0.01 0.0167,0.0167 0.002,0.005 -0.004,0.0128 0,0.0167 0.009,0.009 0.0246,0.008 0.0334,0.0167 0.004,0.004 -0.003,0.0121 0,0.0167 0.0646,0.0969 0.008,0.0124 0.0501,0.0334 0.0141,0.007 0.0193,0.0263 0.0334,0.0334 0.01,0.005 0.0386,-0.004 0.0501,0 0.0147,0.005 0.087,0.0413 0.10023,0.0501 0.007,0.004 0.0102,0.0123 0.0167,0.0167 0.0207,0.0138 0.0618,0.028 0.0835,0.0334 0.005,0.001 0.0117,-0.002 0.0167,0 0.007,0.004 0.01,0.0132 0.0167,0.0167 0.005,0.002 0.0117,-0.002 0.0167,0 0.007,0.004 0.01,0.0132 0.0167,0.0167 0.0104,0.005 0.0619,-0.005 0.0668,0 0.004,0.004 0,0.0111 0,0.0167 0,0.005 -0.003,0.12019 0,0.13364 0.003,0.0121 0.008,0.0246 0.0167,0.0334 0.004,0.004 0.0111,0 0.0167,0"
       style="fill:none;stroke:#000000;stroke-width:0.26458332px;stroke-linecap:butt;stroke-linejoin:miter;stroke-opacity:1" />
    <path
       id="path862"
       d="m 111.53485,177.83112 c 0.0724,0.0223 0.14481,0.0446 0.21722,0.0669 0.006,0.0111 0.008,0.0246 0.0167,0.0334 0.0447,0.0447 0.0505,0.0172 0.0835,0.0668 0.003,0.005 -0.004,0.0128 0,0.0167 0.009,0.009 0.0246,0.008 0.0334,0.0167 0.004,0.004 0.006,0.0167 0,0.0167 -0.006,0 0,-0.0223 0,-0.0167 0,0.0167 -0.005,0.0343 0,0.0501 8e-5,2.3e-4 0.0485,0.002 0.0501,0 0.004,-0.004 0.004,-0.0128 0,-0.0167 -0.004,-0.004 -0.0111,0 -0.0167,0 -0.0334,0 -0.0668,0 -0.10023,0 -0.006,0 -0.0142,-0.005 -0.0167,0 -0.005,0.01 0,0.0223 0,0.0334 0,0.0149 -0.003,0.0782 0,0.0835 0.004,0.007 0.0111,0.0111 0.0167,0.0167 0.006,0.006 0.01,0.0132 0.0167,0.0167 0.01,0.005 0.0255,-0.008 0.0334,0 0.0429,0.0429 -0.021,0.0462 0.0666,0.0165"
       style="fill:none;stroke:#000000;stroke-width:0.26458332px;stroke-linecap:butt;stroke-linejoin:miter;stroke-opacity:1" />
    <path
       id="path864"
       d="m 112.35327,178.73301 c 0.0446,-0.05 0.10374,-0.0902 0.13379,-0.15012 0.0112,-0.0223 -0.127,-0.0167 -0.13363,-0.0167 -0.006,0 -0.0128,-0.004 -0.0167,0 -0.004,0.004 0,0.0111 0,0.0167 0,0.006 0,0.0111 0,0.0167 0,0.0223 -0.005,0.0452 0,0.0668 10e-4,0.005 0.0154,-0.005 0.0167,0 0.005,0.0215 -0.0208,0.0583 -1.6e-4,0.0666 0.0279,0.0111 0.0552,-0.0238 0.0837,-0.0332 0.005,-0.002 0.0111,0 0.0167,0 0.0111,0 0.0228,0.004 0.0334,0 0.002,-7.9e-4 0.0487,-0.0473 0.0501,-0.0501 0.002,-0.005 0,-0.0111 0,-0.0167 0,-0.0214 0.0116,-0.0574 -0.0167,-0.0668 -0.0159,-0.005 -0.0334,0 -0.0501,0 -0.0501,0 -0.10023,0 -0.15034,0 -0.0167,0 -0.0334,0 -0.0501,0 -0.006,0 -0.0142,0.005 -0.0167,0 -0.007,-0.0149 0,-0.0334 0,-0.0501 0,-0.0334 0,-0.0668 0,-0.10022 0,-0.0223 0,-0.0446 0,-0.0668 0,-0.006 0.004,-0.0128 0,-0.0167 -0.004,-0.004 -0.0206,0.004 -0.0167,0 0.0169,-0.0169 0.0672,-0.0236 0.0835,-0.0334 0.0135,-0.008 0.0223,-0.0223 0.0334,-0.0334 0.006,-0.006 0.0111,-0.0111 0.0167,-0.0167 0.006,-0.006 0.0111,-0.0223 0.0167,-0.0167 0.008,0.008 0,0.0223 0,0.0334 0,0.0334 0,0.0668 0,0.10022 0,0.12123 -0.0129,0.0982 -0.067,0.30047"
       style="fill:none;stroke:#000000;stroke-width:0.26458332px;stroke-linecap:butt;stroke-linejoin:miter;stroke-opacity:1" />
    <path
       id="path866"
       d="m 111.16742,177.31336 c -0.10107,0.0866 -0.14319,0.15752 -0.10023,0.0501 0.005,-0.0116 0.0143,-0.0212 0.0167,-0.0334 0.003,-0.0164 -0.003,-0.0337 0,-0.0501 0.005,-0.0244 0.0255,-0.0432 0.0334,-0.0668 0.002,-0.005 0,-0.0111 0,-0.0167 0,-0.0111 0,-0.0223 0,-0.0334 0,-0.006 0.005,-0.0185 0,-0.0167 -0.0679,0.0226 -0.0365,0.0264 -0.0668,0.0668 -0.009,0.0126 -0.0236,0.0211 -0.0334,0.0334 -0.0125,0.0157 -0.0213,0.0341 -0.0334,0.0501 -0.005,0.006 -0.0123,0.0102 -0.0167,0.0167 -0.007,0.0104 -0.004,0.0334 -0.0167,0.0334 -0.0167,0 -0.003,-0.0529 0.0167,-0.0334 0.004,0.004 0,0.0111 0,0.0167 0.0668,-0.006 0.13363,-0.0111 0.20045,-0.0167"
       style="fill:none;stroke:#000000;stroke-width:0.26458332px;stroke-linecap:butt;stroke-linejoin:miter;stroke-opacity:1" />
    <path
       id="path868"
       d="m 112.7708,178.96681 c 0.0279,0.0446 0.0558,0.0893 0.0838,0.13392 0,0.006 -0.004,0.0128 0,0.0167 0.004,0.004 0.0111,0 0.0167,0 0.006,0 0.0117,0.002 0.0167,0 0.007,-0.004 0.01,-0.0132 0.0167,-0.0167 0.005,-0.002 0.0127,0.004 0.0167,0 0.004,-0.004 -0.002,-0.0114 0,-0.0167 0.004,-0.0118 0.0127,-0.0216 0.0167,-0.0334 0.002,-0.005 -0.004,-0.0128 0,-0.0167 0.004,-0.004 0.0142,-0.005 0.0167,0 0.007,0.0149 0,0.0334 0,0.0501 0,0.0334 0,0.0668 0,0.10023 0,0.0167 -0.004,0.0339 0,0.0501 0.002,0.008 0.0111,0.0111 0.0167,0.0167 0.006,0.006 0.0102,0.0123 0.0167,0.0167 0.0104,0.007 0.0216,0.0127 0.0334,0.0167 0.005,0.002 0.0111,0 0.0167,0 0.0111,0 0.0234,0.005 0.0334,0 0.005,-0.002 -0.004,-0.0128 0,-0.0167 0.004,-0.004 0.0128,-0.004 0.0167,0 0.008,0.008 -0.016,0.0498 0.0167,0.0334 0.007,-0.004 0.01,-0.0132 0.0167,-0.0167 0.005,-0.002 0.0127,0.004 0.0167,0 0.004,-0.004 -0.002,-0.0117 0,-0.0167 0.004,-0.007 0.0142,-0.009 0.0167,-0.0167 0.004,-0.0121 -0.006,-0.0613 0,-0.0668 0.004,-0.004 0.0111,0 0.0167,0 0.006,0 0.0127,-0.004 0.0167,0 0.0229,0.023 0.0167,0.0552 0.0167,0.0835 0,0.006 -0.002,0.0117 0,0.0167 0.004,0.007 0.0123,0.0102 0.0167,0.0167 0.007,0.0104 0.01,0.0231 0.0167,0.0334 0.004,0.007 0.0132,0.01 0.0167,0.0167 0.002,0.005 0,0.0111 0,0.0167 0,0.0111 -0.004,0.0231 0,0.0334 0.10387,0.1558 -0.002,-0.0234 0.0334,0.0835 0.005,0.0149 0.0296,0.0181 0.0334,0.0334 0.0193,0.0773 -0.0209,0.0292 0.0167,0.0668 0.006,0.006 0.0132,0.01 0.0167,0.0167 0.002,0.005 -0.004,0.0128 0,0.0167 0.004,0.004 0.0196,-0.005 0.0167,0 -0.0461,0.075 -0.10023,0.14476 -0.15034,0.21714"
       style="fill:none;stroke:#000000;stroke-width:0.26458332px;stroke-linecap:butt;stroke-linejoin:miter;stroke-opacity:1" />
    <path
       id="path870"
       d="m 111.93565,178.23186 c 0.29142,0.12017 0.2117,0.0447 0.30085,0.13388 0.006,0.006 0.01,0.0132 0.0167,0.0167 0.005,0.003 0.0426,0 0.0501,0 0.006,0 0.0111,0 0.0167,0 0.006,0 0.0142,0.005 0.0167,0 0.0138,-0.0275 -0.002,-0.0353 -0.0167,-0.0501 -0.006,-0.006 -0.01,-0.0132 -0.0167,-0.0167 -0.005,-0.002 -0.0111,0 -0.0167,0 -0.0111,0 -0.0223,0 -0.0334,0 -0.0278,0 -0.0557,0 -0.0835,0 -0.0111,0 -0.0226,-0.003 -0.0334,0 -0.027,0.007 -0.0331,0.0164 -0.0501,0.0334 -0.006,0.006 -0.0111,0.0111 -0.0167,0.0167 -0.006,0.006 -0.0132,0.01 -0.0167,0.0167 -0.002,0.005 0.002,0.0117 0,0.0167 -0.004,0.007 -0.0132,0.01 -0.0167,0.0167 -0.002,0.005 -0.006,0.0167 0,0.0167 0.0614,0 0.0231,-0.0128 0.0334,-0.0334 0.004,-0.007 0.0132,-0.01 0.0167,-0.0167 0.002,-0.005 0,-0.0111 0,-0.0167 0,-0.006 0,-0.0111 0,-0.0167 0,-0.0278 0,-0.0557 0,-0.0835 0,-0.0111 0,-0.0223 0,-0.0334 0,-0.0111 0.008,-0.0255 0,-0.0334 -0.0125,-0.0125 -0.036,-0.006 -0.0501,-0.0167 -0.01,-0.007 -0.008,-0.0246 -0.0167,-0.0334 -0.0794,-0.0794 -0.0687,-0.0668 -0.15034,-0.0668 -0.0111,0 -0.0234,-0.005 -0.0334,0 -0.005,0.002 0,0.0111 0,0.0167 0,0.006 0,0.0111 0,0.0167 0,0.0118 -0.002,0.0959 0,0.10023 0.0103,0.0206 0.0162,0.0168 0.0334,0.0167 0.0222,-6e-5 0.0543,0.0182 0.0666,-2.4e-4 0.005,-0.007 0.0134,-0.10949 -0.0165,-0.13339 -0.0194,-0.0156 -0.0474,-0.0179 -0.0668,-0.0334 -0.0195,-0.0156 -0.0158,-0.0492 -0.0334,-0.0668 -0.026,-0.026 -0.0819,-0.0167 -0.11693,-0.0167 -0.006,0 -0.0111,0 -0.0167,0 -0.006,0 -0.0121,-0.003 -0.0167,0 -0.0131,0.009 -0.0263,0.0193 -0.0334,0.0334 -0.002,0.005 0,0.0896 0,0.10023 0,0.0278 0,0.0557 0,0.0835 0,0.006 -0.004,0.0128 0,0.0167 0.004,0.004 0.0111,0 0.0167,0 0.006,0 0.0111,0 0.0167,0 0.006,0 0.0111,0 0.0167,0 0.0111,0 0.0272,0.009 0.0334,0 0.009,-0.0139 0,-0.0334 0,-0.0501 0,-0.0501 0,-0.10022 0,-0.15033 0,-0.006 0.001,-0.0113 0,-0.0167 -7.9e-4,-0.004 -0.0228,-0.0755 -0.0334,-0.0835 -0.0115,-0.009 -0.11184,-0.0325 -0.11694,-0.0334 -0.0387,-0.007 -0.0777,-0.0131 -0.11693,-0.0167 -0.0222,-0.002 -0.0445,0 -0.0668,0 -0.0557,0 -0.11136,0 -0.16705,0 -0.0278,0 -0.0557,0 -0.0835,0 -0.006,0 -0.0142,-0.005 -0.0167,0 -0.005,0.01 0,0.0223 0,0.0334 0,0.0111 0,0.0223 0,0.0334 0,0.039 0,0.078 0,0.11693"
       style="fill:none;stroke:#000000;stroke-width:0.26458332px;stroke-linecap:butt;stroke-linejoin:miter;stroke-opacity:1" />
  </g>
</svg>
