<?xml version="1.0" encoding="UTF-8" standalone="no"?>
<!-- Generator: Adobe Illustrator 21.0.0, SVG Export Plug-In . SVG Version: 6.00 Build 0)  -->

<svg
   version="1.1"
   id="Layer_1"
   x="0px"
   y="0px"
   viewBox="0 0 1388.8847 690.68469"
   xml:space="preserve"
   sodipodi:docname="icon.svg"
   width="1388.8848"
   height="690.68469"
   inkscape:version="1.2.1 (9c6d41e410, 2022-07-14)"
   xmlns:inkscape="http://www.inkscape.org/namespaces/inkscape"
   xmlns:sodipodi="http://sodipodi.sourceforge.net/DTD/sodipodi-0.dtd"
   xmlns="http://www.w3.org/2000/svg"
   xmlns:svg="http://www.w3.org/2000/svg"><defs
   id="defs29" /><sodipodi:namedview
   id="namedview27"
   pagecolor="#ffffff"
   bordercolor="#666666"
   borderopacity="1.0"
   inkscape:showpageshadow="2"
   inkscape:pageopacity="0.0"
   inkscape:pagecheckerboard="0"
   inkscape:deskcolor="#d1d1d1"
   showgrid="false"
   inkscape:zoom="0.70909476"
   inkscape:cx="709.35512"
   inkscape:cy="458.33085"
   inkscape:window-width="2560"
   inkscape:window-height="1369"
   inkscape:window-x="-8"
   inkscape:window-y="-8"
   inkscape:window-maximized="1"
   inkscape:current-layer="Layer_1" />
<g
   id="g24"
   transform="translate(-13.9,267.39566)">
	<path
   d="m 13.9,224.4 c 0.6,-0.4 1.6,-0.8 1.7,-1.3 6,-30.7 28.6,-43 55.7,-49.7 13.7,-3.4 27.9,-5.2 42.2,-5.1 33.3,0 66.6,0 99.8,0.1 3,0 7.4,-1.9 9,1.9 1.4,3.2 -1.5,6.4 -3.4,9.1 -8.3,12.1 -20.3,18.4 -34.6,20.4 -10.4,1.5 -20.8,1.7 -31.3,1.5 -13,-0.2 -25.2,2.7 -36.6,8.8 -23.3,12.6 -25.2,39.1 -4,54.8 13.3,9.8 28.6,14.4 44.6,16.8 20.2,3 40.2,2.1 59.5,-5.4 32.3,-12.4 46.3,-38.6 38.9,-72.4 -3.9,-17.6 -10.4,-34.2 -16.8,-50.9 -7.2,-18.8 -14.1,-37.8 -14,-58.4 0.2,-25.2 11.7,-43.4 33.8,-55.2 20.6,-11.1 43.1,-14.7 65.8,-16 25,-1.5 50,-2.7 75,1.3 13.8,2.2 27,6.3 38.4,14.6 24,17.5 18.8,51 -6.8,66.3 -2.3,1.4 -5,1.4 -7.6,1.4 -19.4,0 -38.9,0.1 -58.3,-0.1 -8.8,-0.1 -9,-0.6 -4.9,-8.9 5.5,-11 11.1,-22 16.6,-33.1 1.4,-2.8 2.6,-6.3 -2.4,-6.2 -16.4,0.3 -32.9,-1.9 -49.2,1.3 -14,2.8 -19.6,10.1 -19.4,24.4 0.2,11.8 4.7,22.5 8.5,33.5 8.2,24 18.9,47.1 24.2,72.1 9,42.9 -5.9,76.5 -44,98.3 -24.7,14.1 -51.6,21.7 -79.6,25 -46.9,5.6 -93.2,2.9 -138.1,-12.8 -20.2,-7.1 -39.2,-16.5 -52,-35.2 -4.9,-7.2 -5.4,-16 -10.5,-22.9 -0.2,-6.1 -0.2,-12 -0.2,-18 z"
   id="path20" />
	<path
   d="m 817.4,271.8 c 13.1,0 26.2,-0.4 39.3,0.1 7.1,0.3 10.3,-1.9 12.7,-8.9 22.1,-63.4 44.8,-126.6 66.9,-190 2.7,-7.9 6.2,-11.2 14.9,-10.8 17.5,0.7 35.2,0.2 52.7,0.2 9.3,0 9.4,0.2 6.2,9.2 -18.2,51 -36.4,101.9 -54.6,152.9 -4.4,12.3 -8.8,24.6 -13.1,36.9 -3.2,9.3 -3,9.6 6.3,9.7 15,0.1 29.9,-0.3 44.9,0.2 6.5,0.2 9.1,-2.4 11.1,-8.2 22,-62.7 44.1,-125.3 66.5,-187.9 5.1,-14.4 1.5,-12.8 17.6,-12.9 16.1,-0.1 32.2,0 48.3,0 11.6,0 11.8,0.1 8,10.7 -17.8,49.9 -35.6,99.8 -53.4,149.7 -4.9,13.7 -9.6,27.5 -14.7,41.1 -2.1,5.5 -1,7.4 5,7.3 13.8,-0.2 27.7,-0.3 41.5,0 5.5,0.1 7.3,-2.2 9,-7.3 10.1,-29.3 20.9,-58.3 31.2,-87.5 2.1,-6.1 4.7,-9 11.8,-8.8 19.1,0.6 38.1,0.1 57.2,0.2 9.1,0 9.1,0.2 5.9,9.2 -10.2,28.5 -20.5,56.9 -30.6,85.4 -3,8.4 -2.9,8.6 6,8.6 10.1,0 22,2.9 29.7,-1.4 7.9,-4.4 8.2,-17.5 11.6,-26.9 8.2,-22.4 16.3,-44.9 23.9,-67.5 1.9,-5.6 4.6,-7.6 10.4,-7.5 19.4,0.3 38.9,0.4 58.3,0 7.1,-0.1 8.1,1.8 5.7,8.2 -10.1,27.7 -19.8,55.5 -29.6,83.3 -4.2,11.9 -4.2,11.9 8.9,11.9 20.9,0 41.9,-0.1 62.8,0 8.4,0 8.5,0.3 4.6,8 -8.8,17.7 -24,24.9 -42.9,25.2 -12.7,0.2 -25.5,0.5 -38.1,-0.1 -7.5,-0.4 -11.4,1.8 -14,9.2 -6.1,17.3 -14.1,33.8 -24.1,49.2 -16.1,24.6 -37.6,41.2 -67.8,44.7 -10.2,1.2 -20.2,0.6 -29.9,-2.5 -23.8,-7.7 -36,-30.3 -30.9,-57.5 2.5,-13.4 7.2,-25.9 16.5,-36.3 1.2,-1.3 3.2,-2.7 2.6,-4.7 -0.9,-2.8 -3.7,-1.8 -5.7,-1.9 -7.5,-0.3 -15,-1.1 -21.5,-5.2 -3.7,-2.3 -7,-1.8 -10.5,-0.2 -10.1,4.5 -20.9,5.4 -31.8,5.4 -22.4,0 -44.9,0.1 -67.3,0 -9.7,0 -19.6,-0.1 -28,-6.1 -3.2,-2.3 -5.6,-0.6 -8.2,0.6 -10.1,4.6 -20.6,6 -31.6,6 -141.4,-0.1 -282.8,-0.1 -424.2,-0.1 -5.2,0 -10.4,0.3 -15.6,-1.2 -10.8,-3 -14.6,-8.3 -13.3,-19.6 1.5,-12.8 7.1,-24.3 10.7,-36.4 0.9,-2.9 2,-5.6 2.9,-8.5 0.3,-1 0.3,-2.5 -0.3,-3.1 -1.3,-1.5 -2.7,-0.1 -3.7,0.7 -4.1,3.2 -8.1,6.6 -12.2,9.9 -18.4,15.2 -37,30.4 -55.3,45.8 -10.2,8.5 -21.6,13 -35,12.5 -9.7,-0.3 -19.5,-0.4 -29.2,0 -6.6,0.3 -7.5,-1.7 -5.3,-7.6 9.4,-26 18.4,-52.1 27.7,-78.1 17.5,-49.2 35.2,-98.4 52.3,-147.7 2.4,-6.8 5.2,-9.5 12.5,-9.3 17.9,0.5 35.9,0.1 53.9,0.2 9.5,0 9.7,0.2 6.5,9.2 -15.3,43.7 -30.7,87.3 -46.1,130.9 -2.2,6.3 -4.5,12.7 -6.8,19 -0.8,2.1 -2.1,4.3 -0.2,6.1 0.3,0.3 3.1,-1.6 4.5,-2.8 15.6,-12.7 31.2,-25.6 46.9,-38.3 16.7,-13.6 36,-19.3 57.3,-18.3 19.1,1 25.8,10 19.8,27.9 -7.5,22.3 -15.5,44.4 -23.2,66.6 -3.1,8.8 -2.9,8.9 6.5,8.9 16.5,0.1 32.9,-0.1 49.4,0.1 5.4,0.1 7.1,-1 5.5,-7 -8.9,-33.5 1.8,-60.3 30.8,-79 16.4,-10.6 34.5,-16.6 53.8,-17.2 23.1,-0.6 46.3,-2.5 69.4,1.8 8.9,1.6 17.3,4.3 25.3,8.7 25.8,14.3 26.9,47.5 1.6,62.8 -16,9.7 -34,15.4 -51.2,22.6 -3.1,1.3 -6.3,2.4 -9.3,3.8 -1.2,0.6 -7.6,3.2 -7.6,3.2 0,0 6.8,0.1 8.1,0.1 14.2,0.4 28.8,0.4 43.4,0.4 z m -52.9,-70.6 c -3,0 -6,0.3 -9,-0.1 -8.2,-1 -12.9,1.4 -15,10.3 -2.7,11.5 -7.4,22.6 -11.2,33.9 -5.6,17 -0.4,25 17.3,26.2 2.2,0.2 4,0.3 6.7,0.2 5.6,-0.1 8.7,-1.2 10.6,-7 6.2,-18.4 13.1,-36.4 19.7,-54.7 3.1,-8.7 2.9,-8.8 -6.8,-8.9 -4.1,0.1 -8.2,0.1 -12.3,0.1 z m 462.7,109.2 c -1.5,0.6 -3.4,1.1 -5,2.1 -15.7,10.1 -24.7,24.3 -25.3,43.2 -0.2,5.9 2.2,10.8 6,15.2 3.2,3.7 5.5,4.7 7.5,-1.1 4.3,-12.3 8.9,-24.4 13.4,-36.6 2.2,-5.9 4.5,-11.8 6.5,-17.8 0.6,-2.2 1.9,-5.6 -3.1,-5 z"
   id="path22" />
</g>
<path
   d="m 715.39527,364.40088 c -11.0956,-1.40157 -21.4383,-6.64316 -29.4586,-14.92922 -8.8104,-9.10268 -13.5194,-19.88093 -14.1678,-32.43152 -1.2517,-24.19033 14.9058,-45.48278 38.9899,-51.38548 3.2178,-0.78793 4.927,-0.94253 10.6846,-0.96247 9.2206,-0.0374 15.3781,1.29097 22.3386,4.79586 17.0789,8.60098 27.3927,24.42909 28.1234,43.15915 0.7231,18.65229 -8.4391,35.44385 -24.7126,45.26935 -9.0761,5.48032 -20.8063,7.87192 -31.7975,6.48357 z m -52.0092,-112.45691 c -2.2168,-1.10083 -21.739,-20.62258 -22.7976,-22.79786 -0.6982,-1.44171 -0.7852,-2.30617 -0.6731,-6.65248 0.1255,-4.1224 0.2861,-5.28135 0.9849,-6.63192 0.985,-1.89962 8.7182,-9.47531 14.2376,-13.95265 12.1366,-9.84484 28.0898,-17.5983 43.3222,-21.05645 8.4053,-1.90823 13.3983,-2.42075 23.5852,-2.42075 10.1883,0 15.1802,0.5124 23.5855,2.42075 15.2324,3.45778 31.1742,11.20588 43.3248,21.05645 6.2334,5.05382 13.5481,12.34127 14.3173,14.26483 0.8603,2.13775 1.2343,10.33042 0.5733,12.38815 -0.6358,1.98126 -20.719,22.22972 -23.205,23.3984 -2.2528,1.05847 -6.1537,1.08466 -8.4179,0.0625 -0.9598,-0.43762 -2.6991,-1.94364 -4.2337,-3.67272 -3.5594,-4.01306 -9.1298,-8.57369 -14.1941,-11.62204 -22.5418,-13.56841 -51.1092,-11.3202 -71.4082,5.61971 -2.0233,1.68943 -4.8497,4.39032 -6.2798,6.00233 -1.5335,1.72908 -3.2687,3.23487 -4.2326,3.67272 -2.2516,1.02231 -6.3519,0.98739 -8.4888,-0.0747 z m -58.6618,-58.37608 c -2.112,-1.07093 -22.8437,-22.00595 -23.3697,-23.59838 -0.2365,-0.73183 -0.374,-3.40479 -0.2993,-6.11603 0.1256,-3.92317 0.2861,-5.11578 0.9724,-6.43431 1.6269,-3.12864 16.4618,-16.89017 26.1562,-24.26289 15.4656,-11.76079 36.3792,-22.65936 55.0963,-28.7103 42.109,-13.613791 88.0331,-12.160121 128.7173,4.0744 15.0978,6.02489 31.6454,15.30908 43.9096,24.6359 9.6944,7.37272 24.5304,21.13425 26.1572,24.26289 0.6858,1.31853 0.8603,2.51114 0.9724,6.43431 0.1256,2.71772 0,5.3837 -0.2992,6.11914 -0.5611,1.72135 -21.7204,22.93925 -23.6876,23.76146 -1.8327,0.76549 -5.7173,0.74055 -7.6921,-0.0499 -1.0597,-0.42388 -2.9187,-2.07055 -5.6639,-5.01717 -14.4407,-15.50007 -35.3782,-28.76578 -56.9862,-36.10384 -15.7138,-5.33658 -29.5786,-7.59252 -46.6636,-7.59252 -17.0838,0 -30.9497,2.25594 -46.6632,7.59252 -21.6072,7.33806 -42.5458,20.60377 -56.9851,36.10384 -2.7455,2.94662 -4.6041,4.59329 -5.6638,5.01717 -2.1296,0.85151 -6.22,0.79167 -8.0115,-0.11221 z m -59.0658,-59.31026 c -2.3401,-1.06469 -22.1093,-21.08338 -22.7328,-23.01866 -0.2744,-0.86023 -0.4113,-3.35978 -0.324,-6.2493 0.1255,-3.91981 0.2861,-5.115911 0.9724,-6.428581 1.2468,-2.38447 13.9982,-14.65891 23.5019,-22.6121 39.0909,-32.71252 85.9238,-53.6726 135.8712,-60.8087 15.2984,-2.18562 19.4886,-2.44805 39.1083,-2.44805 19.6195,0 23.8097,0.26305 39.1081,2.44805 49.9474,7.1361 96.7803,28.09618 135.87,60.8087 9.5037,7.95319 22.2613,20.22763 23.5019,22.6121 0.6858,1.31267 0.8603,2.508771 0.9724,6.428581 0.1256,2.88952 0,5.38919 -0.3243,6.2493 -0.6606,2.06382 -20.4222,21.9779 -22.8659,23.04597 -2.34,1.02355 -6.1563,1.00111 -8.4689,-0.0499 -1.1221,-0.50742 -4.1018,-3.09311 -8.2657,-7.16452 -17.7048,-17.31081 -35.1538,-29.857911 -56.711,-40.778541 -26.6684,-13.51044 -53.0814,-20.95871 -84.667,-23.87578 -11.7915,-1.08839 -32.9646,-0.5872 -46.566,1.10335 -25.9831,3.23037 -50.8238,10.83498 -74.3868,22.77168 -21.5572,10.92051 -39.0062,23.467611 -56.7109,40.778541 -4.1639,4.07129 -7.1462,6.65698 -8.2643,7.16439 -2.2729,1.03104 -6.3633,1.04101 -8.6049,0.0248 z"
   id="path26127"
   style="fill:#000000;stroke:none;stroke-width:12.4672"
   inkscape:connector-curvature="0" /></svg>
