<?xml version="1.0" encoding="utf-8"?>
<!-- Svg Vector Icons : http://www.onlinewebfonts.com/icon -->
<!DOCTYPE svg PUBLIC "-//W3C//DTD SVG 1.1//EN" "http://www.w3.org/Graphics/SVG/1.1/DTD/svg11.dtd">
<svg version="1.1" xmlns="http://www.w3.org/2000/svg" xmlns:xlink="http://www.w3.org/1999/xlink" x="0px" y="0px" viewBox="0 0 1000 1000" enable-background="new 0 0 1000 1000" xml:space="preserve">
<metadata> Svg Vector Icons : http://www.onlinewebfonts.com/icon </metadata>
<g><path d="M218.2,10h302.8L339.3,312.9h212L157.6,797.5l109.1-363.4H66.8L218.2,10z"/><path d="M910.2,533h-75.1c-12.8,0-23,10.3-23,23v411c0,12.7,10.3,23,23,23h75.1c12.7,0,23-10.3,23-23V556C933.2,543.2,922.9,533,910.2,533z"/><path d="M419.6,648.2h-75.1c-12.7,0-23,10.3-23,23.1V967c0,12.7,10.3,23,23,23h75.1c12.8,0,23.1-10.3,23.1-23V671.2C442.7,658.4,432.4,648.2,419.6,648.2z"/><path d="M664.8,306.3h-75c-12.7,0-23.1,10.2-23.1,23.1V967c0,12.7,10.4,23,23.1,23h75c12.8,0,23.1-10.3,23.1-23V329.4C687.9,316.5,677.6,306.3,664.8,306.3z"/></g>
</svg>