<?xml version="1.0" encoding="iso-8859-1"?>
<!-- Generator: Adobe Illustrator 19.0.0, SVG Export Plug-In . SVG Version: 6.00 Build 0)  -->
<svg version="1.1" id="Capa_1" xmlns="http://www.w3.org/2000/svg" xmlns:xlink="http://www.w3.org/1999/xlink" x="0px" y="0px"
	 viewBox="0 0 55 55" style="enable-background:new 0 0 55 55;" xml:space="preserve">
<g>
	<path d="M54,13.5h-2v-2.002C52,9.294,50.206,7.5,48,7.5s-4,1.794-4,3.998V13.5h-2v-2.002C42,9.294,40.206,7.5,38,7.5
		s-4,1.794-4,3.998V13.5h-2v-2.002C32,9.294,30.206,7.5,28,7.5s-4,1.794-4,3.998V13.5h-2v-2.002C22,9.294,20.206,7.5,18,7.5
		s-4,1.794-4,3.998V13.5h-2v-2.002C12,9.294,10.206,7.5,8,7.5s-4,1.794-4,3.998V13.5H2v-1H0v2v6v2h2v-1h2v22.002
		C4,45.706,5.794,47.5,8,47.5s4-1.794,4-3.998V42.5h2v1.002c0,2.204,1.794,3.998,4,3.998s4-1.794,4-3.998V42.5h2v1.002
		c0,2.204,1.794,3.998,4,3.998s4-1.794,4-3.998V42.5h2v1.002c0,2.204,1.794,3.998,4,3.998s4-1.794,4-3.998V42.5h2v1.002
		c0,2.204,1.794,3.998,4,3.998s4-1.794,4-3.998V21.5h2c0.553,0,1-0.447,1-1v-6C55,13.947,54.553,13.5,54,13.5z M44,15.5v4h-2v-4H44z
		 M34,15.5v4h-2v-4H34z M24,15.5v4h-2v-4H24z M14,15.5v4h-2v-4H14z M2,19.5v-4h2v4H2z M10,43.502c0,1.102-0.898,1.998-2,1.998
		s-2-0.896-2-1.998V20.5v-6v-3.002C6,10.396,6.898,9.5,8,9.5s2,0.896,2,1.998V14.5v6v20v2V43.502z M12,40.5v-19h2v19H12z M20,43.502
		c0,1.102-0.897,1.998-2,1.998s-2-0.896-2-1.998V20.5v-6v-3.002c0-1.102,0.897-1.998,2-1.998s2,0.896,2,1.998V14.5v6V43.502z
		 M22,40.5v-19h2v19H22z M30,43.502c0,1.102-0.897,1.998-2,1.998s-2-0.896-2-1.998V42.5v-2v-20v-6v-3.002
		c0-1.102,0.897-1.998,2-1.998s2,0.896,2,1.998V14.5v6v20v2V43.502z M32,40.5v-19h2v19H32z M40,43.502c0,1.102-0.897,1.998-2,1.998
		s-2-0.896-2-1.998V20.5v-6v-3.002c0-1.102,0.897-1.998,2-1.998s2,0.896,2,1.998V14.5v6v20v2V43.502z M42,40.5v-19h2v19H42z
		 M50,43.502c0,1.102-0.897,1.998-2,1.998s-2-0.896-2-1.998V20.5v-6v-3.002c0-1.102,0.897-1.998,2-1.998s2,0.896,2,1.998V14.5v6
		V43.502z M53,19.5h-1v-4h1V19.5z"/>
</g>
<g>
</g>
<g>
</g>
<g>
</g>
<g>
</g>
<g>
</g>
<g>
</g>
<g>
</g>
<g>
</g>
<g>
</g>
<g>
</g>
<g>
</g>
<g>
</g>
<g>
</g>
<g>
</g>
<g>
</g>
</svg>
