<?xml version="1.0" standalone="no"?>
<!DOCTYPE svg PUBLIC "-//W3C//DTD SVG 20010904//EN"
 "http://www.w3.org/TR/2001/REC-SVG-20010904/DTD/svg10.dtd">
<svg version="1.0" xmlns="http://www.w3.org/2000/svg"
 width="379.000000pt" height="324.000000pt" viewBox="0 0 379.000000 324.000000"
 preserveAspectRatio="xMidYMid meet">
<metadata>
Created by potrace 1.15, written by Peter Selinger 2001-2017
</metadata>
<g transform="translate(0.000000,324.000000) scale(0.100000,-0.100000)"
fill="#000000" stroke="none">
<path d="M773 2972 c-163 -130 -355 -374 -449 -569 -67 -140 -127 -329 -120
-378 3 -25 2 -33 -3 -20 -6 15 -11 5 -20 -45 -13 -74 -25 -290 -12 -225 8 37
8 35 10 -27 0 -38 -3 -68 -8 -68 -5 0 -8 -35 -8 -77 0 -43 2 -68 4 -55 8 40
20 23 27 -35 4 -32 8 -73 10 -90 5 -38 -1 -42 -14 -10 -8 20 -9 20 -8 2 0 -28
16 -75 17 -52 2 32 20 18 26 -20 3 -21 9 -50 14 -64 5 -15 5 -33 0 -40 -5 -8
-8 -21 -8 -29 0 -10 3 -8 8 5 8 18 10 18 21 -10 7 -16 19 -45 27 -64 11 -26
11 -36 2 -45 -9 -8 -10 -8 -5 2 8 14 -2 35 -14 27 -4 -3 -3 -18 3 -35 7 -20
14 -25 19 -17 5 8 8 6 8 -7 0 -11 3 -16 7 -13 3 4 15 -16 25 -45 21 -61 21
-61 7 -52 -6 3 -3 -8 5 -25 20 -38 28 -40 21 -3 -5 26 -5 26 5 4 5 -13 8 -28
5 -32 -3 -5 -2 -15 1 -24 5 -14 9 -14 22 -4 13 11 14 10 8 -9 -20 -62 192
-320 404 -490 135 -109 324 -213 492 -272 l88 -30 432 0 c518 1 561 5 690 57
194 78 385 202 538 348 301 289 467 627 517 1049 14 121 15 161 4 289 -12 154
-53 343 -104 476 -53 142 -154 324 -246 445 -61 80 -214 238 -272 281 l-47 34
-1040 0 -1040 0 -49 -38z m1158 -298 c22 -20 35 -76 22 -98 -8 -15 -11 -14
-31 4 -30 28 -28 9 2 -23 24 -26 24 -27 5 -49 l-19 -23 -17 22 c-10 12 -26 33
-36 45 l-19 23 16 -27 c20 -34 20 -35 -5 -41 -62 -16 -125 78 -89 133 8 12 16
8 46 -25 l35 -40 -26 48 c-21 37 -25 51 -16 61 10 11 20 6 57 -32 40 -41 43
-42 20 -11 -37 51 -35 70 5 59 18 -5 40 -17 50 -26z m-514 -36 c-3 -35 -4 -55
-1 -45 3 9 9 17 13 17 5 0 11 18 14 41 6 48 9 51 31 43 10 -4 16 -18 17 -38
l1 -31 9 33 c14 48 32 41 58 -25 11 -26 10 -37 -4 -66 -19 -40 -63 -66 -76
-45 -6 9 -9 6 -9 -9 0 -18 -6 -23 -24 -23 -28 0 -41 27 -31 63 6 21 5 21 -8
-2 l-14 -24 -18 27 c-24 36 -15 103 17 128 13 10 25 18 26 18 2 0 2 -28 -1
-62z m442 -448 l3 -35 13 35 c6 19 18 35 25 35 8 0 18 -16 23 -35 10 -36 11
-35 21 13 4 15 13 27 22 27 13 0 15 -8 9 -42 -17 -111 -41 -136 -68 -70 l-15
37 -1 -32 c-2 -62 -44 -51 -55 15 -4 20 -9 50 -12 65 -5 24 -3 28 13 25 12 -2
19 -14 22 -38z m1211 -150 c0 -6 -118 -10 -332 -10 -1742 -1 -2223 1 -2232 10
-7 7 432 10 1277 10 851 0 1287 -3 1287 -10z m-388 -269 c27 -23 28 -24 47 -7
32 29 97 39 155 24 28 -7 54 -17 58 -22 3 -5 23 5 44 22 60 50 65 38 6 -14
-28 -25 -52 -52 -52 -59 0 -7 -5 -15 -10 -17 -6 -2 -13 -28 -17 -58 l-6 -54
54 -48 c30 -26 49 -48 43 -48 -5 0 -20 9 -32 21 -16 14 -29 18 -44 13 -12 -3
-54 -7 -94 -8 -72 -1 -73 -1 -78 27 l-6 29 -55 -47 c-30 -26 -55 -43 -55 -37
0 5 25 31 55 57 55 47 56 47 50 93 -8 68 -10 73 -70 122 -29 25 -54 49 -54 54
-1 9 19 -5 61 -43z m-1890 -23 c8 -7 41 -51 73 -98 32 -47 78 -113 101 -146
24 -34 44 -69 44 -78 0 -29 -47 -36 -255 -36 -178 0 -205 2 -224 18 l-22 17
42 60 c22 33 59 84 80 113 132 178 129 175 161 150z m518 -36 c0 -26 -4 -29
-35 -30 -75 -3 -141 -67 -130 -127 8 -45 64 -92 120 -100 42 -7 46 -9 43 -34
-4 -33 -24 -37 -93 -16 -112 32 -165 130 -123 228 27 62 98 107 171 107 45 0
47 -1 47 -28z m350 -2 c0 -27 -3 -30 -29 -30 -16 0 -41 -4 -54 -9 -26 -10 -67
-49 -67 -63 0 -4 25 -8 55 -8 54 0 55 0 55 -30 0 -30 -1 -30 -55 -30 -32 0
-55 -4 -55 -10 0 -30 87 -80 138 -80 9 0 12 -10 10 -27 -3 -25 -7 -28 -39 -27
-51 1 -125 40 -156 80 -59 78 -31 185 63 236 31 18 64 28 92 28 40 0 42 -1 42
-30z m284 1 c18 -15 22 -76 5 -87 -7 -4 -7 -9 -2 -13 6 -3 13 -25 17 -48 5
-38 4 -43 -13 -43 -20 0 -31 18 -31 55 0 23 -17 35 -51 35 -16 0 -19 -7 -19
-45 0 -38 -3 -45 -20 -45 -19 0 -20 7 -20 106 l0 106 59 -4 c33 -2 66 -10 75
-17z m278 -28 l3 -48 45 0 45 0 3 48 c2 32 7 47 15 44 8 -2 13 -38 15 -105 2
-85 0 -102 -12 -102 -10 0 -16 13 -18 43 l-3 42 -45 0 -45 0 -3 -42 c-3 -35
-7 -43 -23 -43 -18 0 -19 8 -19 105 0 97 1 105 19 105 17 0 20 -8 23 -47z
m303 22 c14 -13 25 -29 25 -35 0 -18 -31 -11 -49 12 -14 16 -24 19 -44 14 -41
-10 -32 -29 28 -59 76 -37 90 -94 28 -118 -54 -20 -123 9 -123 52 0 25 30 25
37 -1 11 -40 87 -37 81 3 -2 16 -15 26 -43 35 -56 18 -79 43 -71 77 12 48 91
61 131 20z m-398 -48 c7 -7 14 -35 15 -61 2 -40 -2 -51 -21 -67 -13 -10 -34
-19 -47 -19 -67 0 -102 102 -53 151 17 17 29 20 57 15 20 -3 42 -11 49 -19z
m873 -277 l0 -40 -170 0 -170 0 0 40 0 40 170 0 170 0 0 -40z"/>
</g>
</svg>
