<?xml version="1.0" encoding="UTF-8" standalone="no"?>
<!-- Generator: Adobe Illustrator 21.0.0, SVG Export Plug-In . SVG Version: 6.00 Build 0)  -->

<svg
   version="1.1"
   id="Layer_1"
   x="0px"
   y="0px"
   viewBox="0 0 1417.3 1004.4"
   style="enable-background:new 0 0 1417.3 1004.4;"
   xml:space="preserve"
   sodipodi:docname="shelly-plus-plug-s.svg"
   inkscape:version="1.2.1 (9c6d41e410, 2022-07-14)"
   xmlns:inkscape="http://www.inkscape.org/namespaces/inkscape"
   xmlns:sodipodi="http://sodipodi.sourceforge.net/DTD/sodipodi-0.dtd"
   xmlns="http://www.w3.org/2000/svg"
   xmlns:svg="http://www.w3.org/2000/svg"><defs
   id="defs37" /><sodipodi:namedview
   id="namedview35"
   pagecolor="#ffffff"
   bordercolor="#666666"
   borderopacity="1.0"
   inkscape:showpageshadow="2"
   inkscape:pageopacity="0.0"
   inkscape:pagecheckerboard="0"
   inkscape:deskcolor="#d1d1d1"
   showgrid="false"
   inkscape:zoom="0.58044604"
   inkscape:cx="906.19966"
   inkscape:cy="396.247"
   inkscape:window-width="2560"
   inkscape:window-height="1369"
   inkscape:window-x="-8"
   inkscape:window-y="-8"
   inkscape:window-maximized="1"
   inkscape:current-layer="g32" />
<g
   id="g32">
	<path
   d="M663.8,486.2c-16-110.8-61.4-210.6-127.8-281c-32.4-34.3-68-59.8-105.9-75.8c-39.3-16.6-79.4-22-119.1-16.3   c-39.7,5.7-76.5,22.3-109.6,49.4c-31.8,26-58.8,60.6-80.1,102.7c-43.7,86.4-59,194.9-43,305.7c16,110.8,61.4,210.6,127.8,281   c32.4,34.3,68,59.8,105.9,75.8c29.3,12.3,58.9,18.5,88.5,18.5c10.2,0,20.4-0.7,30.5-2.2c39.7-5.7,76.5-22.3,109.6-49.4   c31.8-26,58.8-60.6,80.1-102.7C664.6,705.6,679.9,597,663.8,486.2z M537,890c-32.2,26.3-68.1,42.5-106.6,48.1   c-38.6,5.6-77.6,0.2-115.9-15.9c-37.1-15.6-72.1-40.6-103.9-74.4C145,778.2,100.2,679.6,84.3,570c-15.8-109.6-0.8-216.9,42.4-302.2   c20.9-41.4,47.4-75.3,78.5-100.8c32.2-26.3,68.1-42.5,106.6-48.1c9.9-1.4,19.8-2.1,29.7-2.1c28.8,0,57.7,6,86.2,18   c18.2,7.7,35.9,17.6,53,29.7c-64.4,34.7-116.8,94.1-147.8,167.5l-209.7,7.3c0,0,0,0,0,0c-0.2,0-0.4,0-0.6,0.1c0,0-0.1,0-0.1,0   c-0.1,0-0.3,0.1-0.4,0.1c-0.1,0-0.1,0.1-0.2,0.1c-0.1,0.1-0.2,0.1-0.3,0.2c-0.1,0-0.1,0.1-0.2,0.1c-0.1,0.1-0.2,0.2-0.3,0.2   c0,0-0.1,0.1-0.1,0.1c0,0,0,0,0,0.1c-0.1,0.1-0.2,0.2-0.2,0.3c0,0-0.1,0.1-0.1,0.1c-0.1,0.2-0.2,0.3-0.2,0.5c0,0,0,0,0,0   c0,0,0,0,0,0c-14.9,44-22.9,91-24,139.7c0,0.9,0.3,1.7,1,2.3c0.6,0.5,1.3,0.8,2,0.8c0.1,0,0.2,0,0.3,0l35.5-3.2c0,0,0,0,0,0   l166.9-15.4c-1.4,24.2-0.7,48.8,2.1,73.2l-162,26.6l-36.6,6l0,0c-0.6,0.1-1.2,0.4-1.6,0.8c-0.7,0.7-1,1.7-0.9,2.6   c8.8,53.9,25.7,104.8,50.3,151.4c0.4,0.7,1,1.2,1.7,1.4c0,0,0,0,0.1,0c0.1,0,0.2,0.1,0.3,0.1c0,0,0.1,0,0.1,0c0.1,0,0.3,0,0.4,0   c0.2,0,0.4,0,0.6-0.1c0,0,0,0,0,0l190.6-44.1c46.5,91.2,124,158.2,213.2,184.3C553.2,875.8,545.2,883.2,537,890z M126.6,345.3   l205.5-7.2l4.9,118.2l-199.2,18.4L126.6,345.3z M131.7,475.3l-29.2,2.7c1.2-41.7,7.6-82,19.1-120.3L131.7,475.3z M147.1,584.1   l10.4-1.8l152.1-26.7l31.2-5.5l5.3,127.7l-187.1,43.3L147.1,584.1z M151.9,709.8c-20-41-34.1-85.2-42.1-131.7l16.3,3.1l15,2.9   L151.9,709.8z M320.1,547.6l-149.6,26.3l-26.6,4.7l-14.1-2.7l-6.6-1.3l20-3.3l164.4-27l17.5,2.4L320.1,547.6z M615.5,789.2   c-14.4,28.5-31.5,53.5-50.9,74.6l0.3-1c-89.1-25.2-166.6-92.1-212.8-183.5l-5.4-131c0.5-0.5,0.7-1.3,0.7-2c0-1.5-1.2-2.7-2.6-2.9   l-34.5-4.8c-2.8-24.5-3.5-49.3-2.1-73.6l32.1-3c1.6-0.1,2.8-1.5,2.7-3.1l-5.1-123.3c30.6-73,82.5-131.9,146.4-166.1l-2-3.7   c17.1,12.3,33.6,26.8,49.3,43.5c35.6,37.8,65.1,84.2,87.2,136.3c-0.8,2.4-1.5,4.8-2.3,7.2c-0.6,2.2-1.4,2.9-3.1,2.8   c-3.2-0.2-6.3-0.1-9.5-0.1c-3.5,0-7.1-0.1-10.5-0.3c-0.3,0-2-0.1-2-0.1s1.6-0.8,1.8-1c0.7-0.4,1.5-0.8,2.3-1.2   c4.2-2.2,8.5-3.9,12.4-6.8c6.2-4.4,6-12.9-0.6-17c-2.1-1.3-4.2-2.1-6.5-2.5c-5.9-1.2-11.8-0.6-17.7-0.4c-4.9,0.2-9.3,2.1-12.9,5   c-6.4,5.2-8.3,11.3-6.1,21.4c0.4,1.8,0,2.2-1.3,2.1c-4-0.1-8-0.1-12-0.2c-2.3,0-2.3-0.1-1.6-2.7c1.9-6.5,4-11.9,4.4-17.8   c0.4-4.7-1.9-7.4-6.8-7.6c-5.5-0.2-9.9,1.5-13,5.2c-2.9,3.4-5.4,6.5-9.1,9.8c-0.3,0.3-1,0.8-1.1,0.7c-0.5-0.5-0.1-1,0-1.6   c0.6-1.6,0.6-3.1,0.6-4.7c0-11,0.4-24.6,1-37.1c0.2-2.6,0.1-2.6-2.5-2.5c-4.9,0.2-9.6,0.5-14.4,0.6c-1.9,0-2.4,0.8-2.4,2.7   c0,13.7,4.3,28.1,0.1,40.4c-2.2,6.5-4.4,13.9-6.6,21.2c-0.5,1.7-0.3,2.3,1.3,2.2c2.4,0,4.7,0,7.1,0.2c3.2,0.2,6-1,8.5-3.4   c4.4-4.4,8.9-8.8,13.4-13c1-0.9,2-1.8,3-2.7c0.2-0.2,0.6-0.6,0.9-0.2c0.1,0.2,0.1,0.6,0.1,0.8c-0.2,0.8-0.5,1.5-0.7,2.3   c-0.9,3.4-2.2,6.7-2.6,10.5c-0.3,3.4,0.6,5,3.2,6c1.3,0.5,2.5,0.4,3.8,0.5c30,0.8,60,1.6,89.9,2.4c14.1,37.8,24.5,78.1,30.5,120.1   C673.7,596.6,658.7,703.9,615.5,789.2z M591,353.1c-0.5,1.8-1.2,2.1-2.6,2.2c-0.7,0-1.1,0-1.6-0.1c-4.3-0.4-5.5-3.1-4.2-8   c0.9-3.3,2.3-6.2,2.6-9.1c0.2-2.2,1.3-2.9,3.4-2.7c0.8,0.1,1.5,0,2.2,0c1,0,2,0,3,0c2.4,0,2.4,0.1,1.9,2.3   C594.5,342.4,592.5,347.4,591,353.1z"
   id="path24" />
	<path
   d="M481.7,308.1c-0.2,2.3-0.1,2.4,2.1,2.4c4.8-0.1,9.6-0.3,14.4-0.4c0.7,0,1.3,0,1.8-0.5c5-4.5,3.4-13.9-4.4-18   c-3.7-2-7.5-2.8-11.2-3.1c-6.7-0.6-12.7,0-18.4,0.7c-5.2,0.6-9.9,1.8-13.4,4.8c-3.8,3.2-4.6,7.9-2.6,14.4   c1.7,5.3,4.8,10.3,8.1,15.1c2.9,4.3,5.9,8.6,8.5,12.9c4.8,8.3-0.6,15.2-8.4,18.4c-4.7,1.9-9.5,2-14.5,1.2   c-3.9-0.7-7.6-1.9-10.9-4.4c-5.2-4-4.3-10.5,0.7-13.6c2.4-1.5,5.1-2.2,8.2-2.1c2.5,0,5,0,7.4-0.4c3.3-0.5,5.6-2,6.6-5.1   c0.2-0.7,0.6-1.5,0-2.3c-0.7-1-1.6-0.5-2.3-0.5c-7.7,0-15.4,0.1-22.8,0.1c-3.2,0-6.3,0.5-9.2,1.3c-5.8,1.7-10.7,4.6-12.2,12.1   c0,0.1-0.3,0.2-0.4,0.3c0,1.5,0,2.9,0,4.4c1.2,1.7,1.4,3.8,2.6,5.6c3.1,4.6,7.8,7,12.7,8.9c10.9,4.2,22.2,5.4,33.6,4.3   c6.8-0.7,13.3-2.5,19.3-6.2c9.2-5.8,14.5-14.5,8.2-25.4c-3.7-6.4-8.5-12.6-12.7-19c-1.9-2.9-4-5.8-5.2-8.9   c-1.4-3.8-0.8-5.7,2.2-6.6c3.5-1,7.7-0.7,11.7-0.9c1.2-0.1,1.3,0.8,1.2,1.6C482.3,302,482,305,481.7,308.1z"
   id="path26" />
	<path
   d="m 1397.6,381.5 c -13.3,-28.3 -48.3,-21.6 -50.5,-21.2 l -93.6,15.8 -1.2,-0.3 -6.9,-112.1 -0.1,-1.2 -1,-2 C 1202.5,176.2 1136,110 1056.9,74.2 c -6.6,-3 -14.1,-4.2 -21.6,-3.6 l -162,13.9 C 740.52621,12.119811 665.00105,35.577223 350.9,60.3 c -6.7,0.4 -13.6,1.1 -20.6,2.1 l -1.4,0.2 c -48.1,6.9 -93,26 -133.3,56.6 -38.9,29.5 -72,68.4 -98.3,115.7 C 71,282 52.7,335.1 42.9,392.7 32.6,452.3 32,514 41,576.2 c 9,62.2 27.1,121.3 53.7,175.5 25.7,52.4 58.3,98.1 96.9,135.9 38.7,37.9 81.4,65.8 127.1,83.1 34.2,13 69,19.5 103.7,19.5 13.4,0 26.8,-1 40.1,-2.9 0.2,0 0.4,-0.1 0.6,-0.1 0.5,-0.1 0.9,-0.1 1.3,-0.2 4.9,-0.7 10.1,-1.6 15.5,-2.8 57.5,-10.3 252.1,-46.5 349.6,-79.5 l 0.7,-0.2 c 42.1,-12.7 81,-34.7 115.7,-65.3 24.3,-4.5 125.2,-23.2 138.4,-30.1 42.5,-22.3 79.2,-49.7 109.1,-81.7 32.4,-34.6 56.9,-74.7 72.9,-119.1 l 0.4,-1.2 -7.8,-127.9 18,-2.9 c 9,-1.4 16.6,-6.5 21.4,-13.6 16.9,-2.8 67.9,-11.5 80.7,-14 9.4,-1.8 16.7,-7.5 21.2,-16.4 6.7,-13.6 5.8,-33.1 -2.6,-50.8 z m -156.7,3.8 30.6,7.5 -196,28.5 c -0.7,-4.8 -1.5,-9.5 -2.3,-14.3 l 167.7,-22.9 z m -0.4,-7.2 -168.4,23 c -7.5,-39.6 -19.2,-77.9 -34.8,-113.8 l 196.5,-18.5 z M 1036.4,82.6 c 5.5,-0.5 10.9,0.4 15.6,2.6 75.7,34.3 139.5,97.4 180.1,177.9 l -197.5,18.6 C 1012.4,232.1 982.8,187.2 947,149.6 927.4,129 906.4,111 884.4,95.8 Z m -485.2,862.7 -0.8,0.4 c -17,9.2 -35,16.6 -53.6,21.9 l -1.2,0.3 c -1,0.3 -2.1,0.6 -3.1,0.9 -0.6,0.2 -1.2,0.3 -1.7,0.5 -0.9,0.2 -1.7,0.4 -2.6,0.7 -0.7,0.2 -1.3,0.3 -2,0.5 -0.8,0.2 -1.7,0.4 -2.5,0.6 -0.6,0.1 -1.3,0.3 -1.9,0.4 -1.4,0.3 -2.8,0.6 -4.3,0.9 -7.5,1.4 -12.7,2.3 -15.2,2.7 h -0.2 c -0.3,0.1 -0.6,0.1 -0.8,0.1 -0.3,0 -0.5,0.1 -0.7,0.1 h -0.2 c -46,6.6 -92.3,1.2 -137.6,-15.9 C 278.7,942.7 237.4,915.7 199.9,879 162.3,842.2 130.5,797.6 105.4,746.4 79.4,693.3 61.7,635.5 52.8,574.5 44,513.5 44.6,453 54.5,394.8 c 9.6,-56.2 27.5,-108 53.1,-154 25.6,-45.8 57.6,-83.5 95.1,-112 38.7,-29.4 81.7,-47.6 127.7,-54.3 l 3.9,-0.4 c 3.6,-0.4 9.6,-1 17.5,-1.8 51.4,-3.3 101.7,8.4 148.3,32.1 l 3.1,1.6 c 7,3.7 13.9,7.6 20.7,11.8 0,0 0.1,0 0.1,0.1 1.2,0.7 2.4,1.5 3.5,2.2 0.5,0.3 1,0.6 1.4,0.9 0.7,0.4 1.4,0.9 2.1,1.3 0.8,0.5 1.7,1.1 2.5,1.6 l 0.9,0.6 c 87.3,58.1 157.6,159.8 190.3,283.7 l 0.6,2.4 c 0.2,0.7 0.3,1.4 0.5,2 0.4,1.4 0.7,2.8 1,4.1 0.1,0.3 0.2,0.7 0.2,1 0.4,1.8 0.9,3.5 1.3,5.3 v 0.1 c 3.3,13.8 6,27.7 8.3,41.7 v 0 l 0.9,6 c 0.3,1.8 0.6,3.6 0.8,5.4 0.4,3 0.8,6 1.2,8.9 l 0.3,2.1 c 0.4,2.9 0.7,5.8 1,8.7 0.1,1 0.2,2 0.3,2.9 0.3,2.6 0.5,5.2 0.8,7.7 l 0.3,3.9 c 0.2,1.9 0.3,3.8 0.5,5.7 0.1,0.9 0.1,1.9 0.2,2.8 0.1,0.8 0.1,1.7 0.2,2.5 l 0.3,5.4 0.3,6 c 0.1,1.6 0.1,3.2 0.2,4.9 0.1,1.9 0.1,3.7 0.2,5.6 v 0 c 0.2,8.1 0.3,16.3 0.2,24.4 v 0 c -0.2,16.6 -1.1,33.1 -2.8,49.5 v 0 c -1.7,16.9 -4.2,33.7 -7.4,50.4 v 0 c -3.4,17.3 -7.6,34.5 -12.8,51.3 v 0 c -5.5,17.9 -12,35.5 -19.5,52.6 v 0 c -8.3,18.8 -17.8,37 -28.6,54.3 v 0 C 660.5,846.2 646,865.5 629.6,883 l -4.5,4.8 c -22.5,23.3 -47.5,42.4 -74.3,56.9 z M 946,826.9 c -1.4,0.2 -2.7,0.5 -4,0.7 l -1.7,0.3 -1.3,1.1 c -33.7,30 -71.6,51.5 -112.5,63.9 l -1,0.3 c -22.9,7.8 -51.4,15.7 -82.1,23.5 0.5,-0.2 1,-0.3 1.5,-0.5 -13.2,1.8 -26.4,3.8 -39.6,5.9 -1.5,0.2 -2.9,0.4 -4.4,0.5 -3.8,0.4 -7.6,0.8 -11.5,1.2 -3.9,0.4 -7.6,0.6 -11.9,1.3 l -6.3,0.9 -6.3,0.9 -12.6,1.7 c -16.8,2.3 -33.7,4.9 -50.4,7.7 -6.1,1 -12.2,2.1 -18.2,3.1 19.2,-13.1 37.2,-28.6 53.9,-46.4 0,0 13.39613,-14.5888 12.9,-14.3 11.4,-13.5 22.1,-28.1 32,-43.8 l 8.2,-13.5 c 2.8,-4.8 5.5,-9.7 8.2,-14.7 4.6,-8.8 9,-17.7 13.1,-26.9 l 5.5,-13.2 c 5.4,-13.1 10.3,-26.5 14.6,-40.2 l 3.7,-12.7 c 3.7,-12.8 6.8,-25.9 9.6,-39.2 l 2.5,-12.7 c 2.3,-12.7 4.1,-25.5 5.5,-38.4 -0.98124,-0.17497 1.2,-12.3 1.2,-12.3 1.1,-12.5 1.8,-25.1 2,-37.8 v -12.2 -5 -0.6 c 0,-3.4 -0.1,-6.8 -0.2,-10.3 0,-0.7 0,-1.5 -0.1,-2.2 -0.1,-1.7 -0.1,-3.5 -0.2,-5.2 -0.1,-2.2 -0.2,-4.3 -0.3,-6.5 -0.1,-1.5 -0.2,-3.1 -0.2,-4.6 -0.1,-1 -0.1,-1.9 -0.2,-2.9 L 754.8,512 c -0.1,-0.8 -0.1,-1.6 -0.2,-2.3 l -0.3,-3.6 c -0.2,-2.7 -0.5,-5.5 -0.8,-8.2 l -0.3,-3 c 0,-0.4 -0.1,-0.7 -0.1,-1.1 l -0.9,-7.8 c -0.1,-0.7 -0.2,-1.5 -0.3,-2.2 -0.4,-2.9 -0.7,-5.7 -1.2,-8.6 l -1.8,-12 c -0.3,-2.1 -0.7,-4.2 -1.1,-6.2 v -0.2 c -0.7,-3.8 -1.4,-7.7 -2.1,-11.5 -0.1,-0.3 -0.1,-0.6 -0.2,-0.9 -0.7,-3.8 -1.5,-7.6 -2.3,-11.3 0,-0.2 -0.1,-0.4 -0.1,-0.6 -0.4,-1.8 -0.8,-3.7 -1.2,-5.5 v -0.1 l -2.6,-11.7 c -0.2,-1 -0.5,-2 -0.7,-3 -0.6,-2.5 -1.3,-4.9 -1.9,-7.4 -0.4,-1.3 -0.7,-2.7 -1.1,-4 -0.5,-1.7 -1,-3.5 -1.4,-5.2 -0.6,-2 -1.2,-4 -1.7,-6.1 -0.4,-1.5 -0.9,-2.9 -1.3,-4.4 -0.6,-2 -1.2,-3.9 -1.8,-5.9 l -3.6,-11.6 -1.5,-4.5 c -0.5,-1.3 -0.9,-2.7 -1.4,-4 -0.5,-1.5 -1.1,-3.1 -1.6,-4.6 -0.8,-2.1 -1.6,-4.3 -2.4,-6.4 -0.6,-1.5 -1.1,-3 -1.7,-4.5 l -1.5,-3.9 c -0.9,-2.3 -1.8,-4.6 -2.8,-6.9 -0.1,-0.3 -0.2,-0.5 -0.3,-0.8 l -4.9,-11.5 c -1.1,-2.5 -2.2,-4.9 -3.3,-7.4 -0.2,-0.4 -0.4,-0.8 -0.6,-1.3 -4.1,-9 -8.5,-17.9 -13.1,-26.7 L 684,273.7 c -6.7,-12 -13.7,-23.6 -21.2,-34.9 1.14333,0.94344 -7.7,-11.1 -7.7,-11.1 -7.5,-10.7 -15.3,-20.9 -23.6,-30.8 -0.4,-0.5 -0.9,-1.1 -1.3,-1.6 -0.6,-0.7 -1.1,-1.4 -1.7,-2 0.6275,-0.25704 -9.5,-11.1 -9.5,-11.1 -0.1,-0.1 -0.2,-0.2 -0.3,-0.4 -2.1,-2.3 -4.2,-4.6 -6.3,-6.8 -0.9,-1 -1.9,-2 -2.8,-3 l -1.2,-1.2 C 600.8,162.9 592.9,155.4 585,148.3 L 572.5,137.7 C 557.4,125.3 541.8,114.3 525.8,104.8 527.11049,105.28467 507.5,94.6 507.5,94.6 480.6,80.7 452.7,70.8 424.3,65.2 520.5,56 663.6,43.4 708.6,44.8 l 0.9,0.1 h 0.4 c 54.3,1.5 109.1,19 158.6,50.7 l 1.7,1.1 4.8,-0.4 c 23.9,15.9 46.7,35 67.7,57.2 66.9,70.4 112,166.8 127.1,271.3 23.4,160.4 -27.4,312.7 -123.8,402.1 z m 238.5,-107.8 c -28.9,30.9 -64.6,57.6 -105.9,79.2 -8.4,4.4 -72.7,17.4 -121.8,26.5 49.2,-48.2 86,-112.8 106.4,-186.4 l 189.3,-28.1 c -15.4,40.5 -38.3,77.1 -68,108.8 z m -119.6,-86.9 c 10.6,-40.4 16.4,-83.4 16.6,-127.8 l 165.1,-26.4 7.7,126 z m 209.9,-167.7 -28.7,4.6 0.2,3 -164.7,26.3 c -0.2,-23.4 -1.8,-47.2 -5.2,-71.1 l 206,-29.9 c 4.5,3.5 7.4,8.9 7.7,14.8 l 1.5,31.7 c 0.4,10.1 -6.8,19 -16.8,20.6 z m 119.8,-34.8 c -3.6,7.1 -9.5,11.7 -17,13.2 -11.7,2.3 -56,9.8 -76.1,13.2 1.5,-4 2.2,-8.3 2,-12.8 l -1.5,-31.7 c -0.7,-14.1 -10.7,-26.2 -24.3,-29.6 l -9.5,-2.3 79.9,-13.5 h 0.2 c 0.3,-0.1 32.2,-6.9 43.8,17.9 7.7,16 8.6,33.5 2.5,45.6 z"
   id="path28"
   sodipodi:nodetypes="cccccccccccsccccscccsccccccccccccccccccccccccccccccccccccccccccccccccsscccccccccccccccccccccccccccscccccccccccccccssssssssssssssccccccccccccccsccccccccccccccccccccccsccccccccccccccccccccccccccccccccccccccccccccccccccccccccccccccccccccccccccccccccccccccccccccccccccccc" />
	<ellipse
   transform="matrix(0.9897 -0.1431 0.1431 0.9897 -66.718 67.9404)"
   cx="438.8"
   cy="497.7"
   rx="46.8"
   ry="64.9"
   id="ellipse30" />
</g>
</svg>
