<?xml version="1.0" encoding="UTF-8" standalone="no"?>
<svg
   width="960px"
   height="840px"
   viewBox="0 0 960 840"
   version="1.1"
   id="svg854"
   sodipodi:docname="shelly-plus-10v-dimmer.svg"
   inkscape:version="1.2.1 (9c6d41e410, 2022-07-14)"
   xmlns:inkscape="http://www.inkscape.org/namespaces/inkscape"
   xmlns:sodipodi="http://sodipodi.sourceforge.net/DTD/sodipodi-0.dtd"
   xmlns="http://www.w3.org/2000/svg"
   xmlns:svg="http://www.w3.org/2000/svg">
  <defs
     id="defs858" />
  <sodipodi:namedview
     id="namedview856"
     pagecolor="#ffffff"
     bordercolor="#666666"
     borderopacity="1.0"
     inkscape:pageshadow="2"
     inkscape:pageopacity="0.0"
     inkscape:pagecheckerboard="0"
     showgrid="false"
     inkscape:zoom="1.3821429"
     inkscape:cx="479.68991"
     inkscape:cy="420.36174"
     inkscape:window-width="2560"
     inkscape:window-height="1369"
     inkscape:window-x="-8"
     inkscape:window-y="-8"
     inkscape:window-maximized="1"
     inkscape:current-layer="svg854"
     inkscape:showpageshadow="2"
     inkscape:deskcolor="#d1d1d1" />
  <title
     id="title842">Shelly 2.5</title>
  <g
     id="Shelly-2.5"
     stroke="none"
     stroke-width="1"
     fill="none"
     fill-rule="evenodd">
    <path
       d="M921.833019,11.4326225 C943.372863,14.2656961 960,32.7064733 960,55.0331658 L960,621.633194 C960,633.678031 955.062881,645.195733 946.341288,653.497318 L763.129394,827.886235 C754.959129,835.663042 744.114172,840 732.837823,840 L210.908405,840 C198.963425,840 187.532976,835.135015 179.248032,826.524829 L12.2899087,653.012447 C4.40498569,644.817987 6.73521363e-14,633.885111 8.56398024e-14,622.509729 L0,168.674681 L0.000690519334,168.601005 L0,55.0331658 C-1.78416255e-15,32.7064733 16.6271369,14.2656961 38.1669805,11.4326225 L38.1669805,9.94974874 C38.1669805,4.45465425 42.6188384,0 48.1104834,0 L911.889517,0 C917.381162,0 921.833019,4.45465425 921.833019,9.94974874 L921.833019,11.4326225 Z M911.837607,134.607843 L911.837607,10 L48.1623932,10 L48.1623932,134.607843 L44.0026923,134.607843 C26.1241741,134.607843 11.468421,148.414776 10.1037628,165.954011 C11.5081827,147.404702 26.9944513,132.79129 45.8917308,132.79129 L48.0566802,132.79129 L48.0566802,21.0539216 L44.0026923,21.0539216 C25.2235239,21.0539216 10,36.2869721 10,55.0778922 L10,168.631814 C10,167.7306 10.0350167,166.83757 10,168.705481 L10,622.484912 C10,631.2856 13.4079729,639.743937 19.5082434,646.08367 L186.446299,819.574788 C192.856051,826.236152 201.699363,830 210.940748,830 L732.807434,830 C741.531524,830 749.921863,826.644665 756.242891,820.628055 L939.432764,646.260509 C946.180335,639.837897 950,630.927103 950,621.608484 L950,55.0778922 C950,36.2869721 934.776476,21.0539216 915.997308,21.0539216 L911.94332,21.0539216 L911.94332,132.79129 L914.108269,132.79129 C933.005549,132.79129 948.491817,147.404702 949.896237,165.954011 C948.531579,148.414776 933.875826,134.607843 915.997308,134.607843 L911.837607,134.607843 Z"
       id="Combined-Shape"
       fill="#000000"
       fill-rule="nonzero" />
    <path
       d="M210.662119,833 C200.728094,833 191.221978,828.954871 184.331816,821.79569 L17.2208846,648.160082 C10.6633999,641.346567 7,632.25612 7,622.797738 L7,168.566654 C7,148.371449 23.3645243,132 43.5511881,132 L916.448812,132 C936.635476,132 953,148.371449 953,168.566654 L953,621.92058 C953,631.935599 948.894052,641.512317 941.640752,648.414904 L758.261173,822.927669 C751.466385,829.393914 742.447192,833 733.069233,833 L210.662119,833 Z M754.812345,819.312108 L938.202334,644.784848 C944.458507,638.831019 948,630.570618 948,621.93216 L948,168.540579 C948,151.121198 933.885145,137 916.47359,137 L43.5264103,137 C26.1148547,137 12,151.121198 12,168.540579 L12,622.809391 C12,630.967721 15.1597837,638.808689 20.8157956,644.685689 L187.936214,818.335719 C193.879169,824.510873 202.078457,828 210.646829,828 L733.0836,828 C741.172349,828 748.951652,824.88957 754.812345,819.312108 Z"
       id="Path"
       fill="#230020"
       fill-rule="nonzero" />
    <path
       d="M910,135.581229 L910,18 L916.642,18 C936.721969,18 953,34.3660699 953,54.5546403 L953,169 L948,169 C948,150.543322 933.118393,135.581229 914.761,135.581229 L910,135.581229 Z M915,130.568062 C929.136724,130.655086 941.454303,138.457599 948,150 L947.999999,54.5393797 C947.999999,37.1206613 933.960545,23 916.642,23 L915,23 L915,130.568062 Z M50,135.581229 L45.239,135.581229 C26.8816072,135.581229 12,150.543322 12,169 L7,169 L7,54.5546403 C7,34.3660699 23.2780311,18 43.358,18 L50,18 L50,135.581229 Z M45,23 L43.358,23 C26.0394548,23 12,37.1206614 12,54.5393799 L12,150 C18.5456959,138.4576 30.8632759,130.655086 45,130.568063 L45,23 Z"
       id="path847"
       fill="#230020"
       fill-rule="nonzero" />
    <path
       d="M45,7 L913,7 L913,137 L45,137 L45,7 Z M50,12 L50,132 L908,132 L908,12 L50,12 Z"
       id="path849"
       fill="#230020"
       fill-rule="nonzero" />
    <path
       d="m 850.08627,58.215337 -35.33662,36.808975 c 3.53968,1.830449 7.53038,2.859563 11.75035,2.859563 14.55305,0 26.38387,-12.245316 26.38387,-27.383875 0,-4.418941 -1.00805,-8.591361 -2.7976,-12.284663 z m -38.37605,39.975049 -0.51587,0.537366 -1.46742,-0.953103 c -1.90536,-1.237548 -3.70765,-2.734701 -5.3163,-4.410387 -1.61113,-1.678254 -3.04699,-3.553057 -4.22723,-5.528485 l -0.82788,-1.385682 0.44595,-0.464788 c -2.49501,-4.578133 -3.9176,-9.861569 -3.9176,-15.485307 0,-17.445436 13.68963,-31.616125 30.61613,-31.616125 16.92369,0 30.61612,14.172148 30.61612,31.616125 0,17.443977 -13.69243,31.61612 -30.61612,31.61612 -5.3663,0 -10.40725,-1.42431 -14.78978,-3.925734 z m -8.81087,-15.433761 35.31016,-36.801122 c -3.52974,-1.817802 -7.50607,-2.839378 -11.70951,-2.839378 -14.55576,0 -26.38388,12.243764 -26.38388,27.383875 0,4.407943 1.00261,8.570378 2.78323,12.256625 z m 8.18813,9.971174 36.22568,-37.73508 c -0.85628,-1.244542 -1.79063,-2.390645 -2.79992,-3.426013 -0.99368,-1.035085 -2.04388,-1.972203 -3.13866,-2.796933 l -36.25242,37.78316 c 1.65799,2.37402 3.67399,4.460621 5.96532,6.174866 z M 733.08627,58.215337 697.74965,95.024312 c 3.53968,1.830449 7.53038,2.859563 11.75035,2.859563 14.55305,0 26.38387,-12.245316 26.38387,-27.383875 0,-4.418941 -1.00805,-8.591361 -2.7976,-12.284663 z m -38.37605,39.975049 -0.51587,0.537366 -1.46742,-0.953103 c -1.90536,-1.237548 -3.70765,-2.734701 -5.3163,-4.410387 -1.61113,-1.678254 -3.04699,-3.553057 -4.22723,-5.528485 l -0.82788,-1.385682 0.44595,-0.464788 c -2.49501,-4.578133 -3.9176,-9.861569 -3.9176,-15.485307 0,-17.445436 13.68963,-31.616125 30.61613,-31.616125 16.92369,0 30.61612,14.172148 30.61612,31.616125 0,17.443977 -13.69243,31.61612 -30.61612,31.61612 -5.3663,0 -10.40725,-1.42431 -14.78978,-3.925734 z m -8.81087,-15.433761 35.31016,-36.801122 c -3.52974,-1.817802 -7.50607,-2.839378 -11.70951,-2.839378 -14.55576,0 -26.38388,12.243764 -26.38388,27.383875 0,4.407943 1.00261,8.570378 2.78323,12.256625 z m 8.18813,9.971174 36.22568,-37.73508 c -0.85628,-1.244542 -1.79063,-2.390645 -2.79992,-3.426013 -0.99368,-1.035085 -2.04388,-1.972203 -3.13866,-2.796933 l -36.25242,37.78316 c 1.65799,2.37402 3.67399,4.460621 5.96532,6.174866 z M 501.08627,58.215337 465.74965,95.024312 c 3.53968,1.830449 7.53038,2.859563 11.75035,2.859563 14.55305,0 26.38387,-12.245316 26.38387,-27.383875 0,-4.418941 -1.00804,-8.591361 -2.7976,-12.284663 z m -38.37605,39.975049 -0.51587,0.537366 -1.46742,-0.953103 c -1.90536,-1.237548 -3.70764,-2.734701 -5.3163,-4.410387 -1.61113,-1.678254 -3.04699,-3.553057 -4.22723,-5.528485 l -0.82788,-1.385682 0.44595,-0.464788 c -2.49501,-4.578133 -3.9176,-9.861569 -3.9176,-15.485307 0,-17.445436 13.68963,-31.616125 30.61613,-31.616125 16.92369,0 30.61612,14.172148 30.61612,31.616125 0,17.443977 -13.69243,31.61612 -30.61612,31.61612 -5.3663,0 -10.40725,-1.42431 -14.78978,-3.925734 z m -8.81087,-15.433761 35.31016,-36.801122 c -3.52974,-1.817802 -7.50607,-2.839378 -11.70951,-2.839378 -14.55576,0 -26.38388,12.243764 -26.38388,27.383875 0,4.407943 1.00261,8.570378 2.78323,12.256625 z m 8.18813,9.971174 36.22568,-37.73508 c -0.85628,-1.244542 -1.79063,-2.390645 -2.79992,-3.426013 -0.99368,-1.035085 -2.04388,-1.972203 -3.13867,-2.796933 l -36.25241,37.78316 c 1.65799,2.37402 3.67399,4.460621 5.96532,6.174866 z M 267.99576,58.246459 231.24602,94.9962 c 3.68662,1.84774 7.84828,2.887675 12.25289,2.887675 15.12394,0 27.38496,-12.260575 27.38496,-27.383875 0,-4.404758 -1.0401,-8.566671 -2.88811,-12.253541 z m -39.88079,39.880792 -0.55878,0.558775 -1.42722,-0.890962 c -1.97779,-1.234659 -3.85049,-2.728553 -5.52084,-4.398907 -1.67398,-1.671627 -3.16852,-3.544982 -4.40379,-5.526076 l -0.88948,-1.426525 0.55813,-0.558428 c -2.5411,-4.553484 -3.98912,-9.800193 -3.98912,-15.385128 0,-17.461109 14.1541,-31.616125 31.61504,-31.616125 17.46131,0 31.61721,14.155383 31.61721,31.616125 0,17.460742 -14.1559,31.61612 -31.61721,31.61612 -5.58454,0 -10.83081,-1.44793 -15.38394,-3.988869 z m -9.11149,-15.374292 36.73593,-36.755606 c -3.68366,-1.843704 -7.84095,-2.881228 -12.2405,-2.881228 -15.12347,0 -27.38279,12.260111 -27.38279,27.383875 0,4.40458 1.03982,8.566271 2.88736,12.252959 z m 8.51431,9.986162 37.7523,-37.752297 c -0.882,-1.226725 -1.84723,-2.361478 -2.88945,-3.389276 -1.06833,-1.068325 -2.19912,-2.032275 -3.37971,-2.876544 l -37.74037,37.76058 c 1.73369,2.408399 3.84894,4.523752 6.25723,6.257537 z m 350.5975,5.387801 -0.56877,0.568779 -1.43169,-0.909543 c -2.03684,-1.29399 -3.89235,-2.77464 -5.5067,-4.411816 -1.70723,-1.704833 -3.19288,-3.561151 -4.40963,-5.535496 l -0.87774,-1.424268 0.54449,-0.544201 C 563.32899,81.320246 561.88387,76.078805 561.88387,70.5 c 0,-17.460381 14.15555,-31.616125 31.61504,-31.616125 17.46276,0 31.61721,14.154655 31.61721,31.616125 0,17.46147 -14.15445,31.61612 -31.61721,31.61612 -5.5842,0 -10.83042,-1.44807 -15.38362,-3.989198 z m 3.13102,-3.131021 c 3.68667,1.847913 7.84827,2.887974 12.2526,2.887974 15.12534,0 27.38496,-12.259798 27.38496,-27.383875 0,-4.404961 -1.03997,-8.566947 -2.88783,-12.253824 z m 24.50687,-48.992102 c -3.68696,-1.847745 -7.84907,-2.887674 -12.25427,-2.887674 -15.12207,0 -27.38279,12.260888 -27.38279,27.383875 0,4.3993 1.03755,8.556398 2.88126,12.239923 z m -34.50059,40.465823 c 1.73529,2.41316 3.85348,4.53252 6.26558,6.269117 l 37.75715,-37.757148 c -0.85743,-1.196306 -1.82465,-2.335829 -2.87287,-3.384043 -1.04832,-1.048326 -2.18798,-2.015646 -3.38442,-2.873142 z M 151.04091,60.231161 114.99769,97.009955 c 3.6133,1.839287 7.68971,2.87392 12.00231,2.87392 14.83763,0 26.88387,-12.253314 26.88387,-27.383875 0,-4.411699 -1.02412,-8.578786 -2.84296,-12.268839 z m -39.12848,39.927019 -0.53687,0.54783 -1.44695,-0.920629 c -1.94229,-1.235795 -3.78006,-2.731268 -5.42078,-4.405466 -1.64403,-1.677584 -3.10955,-3.552063 -4.31445,-5.527611 l -0.857551,-1.40604 0.501363,-0.511869 C 97.319157,83.368779 95.883875,78.104019 95.883875,72.5 95.883875,55.046567 109.80581,40.883875 127,40.883875 c 17.19133,0 31.11612,14.16415 31.11612,31.616125 0,17.451975 -13.92479,31.61612 -31.11612,31.61612 -5.47571,0 -10.61956,-1.43636 -15.08757,-3.95794 z M 102.9514,84.754927 138.97461,47.97686 C 135.36796,46.14584 131.30127,45.116125 127,45.116125 c -14.84039,0 -26.88388,12.251761 -26.88388,27.383875 0,4.406336 1.0212,8.568441 2.83528,12.254927 z m 8.35129,9.978753 36.98879,-37.74366 c -0.87054,-1.237231 -1.82008,-2.377157 -2.84556,-3.407662 -1.03061,-1.051647 -2.12098,-2.002472 -3.25842,-2.837374 l -36.99633,37.771587 c 1.6959,2.391596 3.7616,4.492882 6.11152,6.217109 z M 166.64516,72.5 c 0,22.163465 -17.74213,40.14516 -39.64409,40.14516 -21.90374,0 -39.646226,-17.981337 -39.646226,-40.14516 0,-22.163823 17.742486,-40.145156 39.646226,-40.145156 21.90196,0 39.64409,17.98169 39.64409,40.145156 z m -5.29032,0 c 0,-19.257471 -15.38957,-34.854844 -34.35377,-34.854844 -18.96603,0 -34.355914,15.597061 -34.355914,34.854844 0,19.257783 15.389884,34.85484 34.355914,34.85484 18.9642,0 34.35377,-15.597369 34.35377,-34.85484 z m 392,-2 c 0,-22.171354 17.974,-40.145156 40.14408,-40.145156 22.17188,0 40.14624,17.973444 40.14624,40.145156 0,22.171712 -17.97436,40.14516 -40.14624,40.14516 -22.17008,0 -40.14408,-17.973806 -40.14408,-40.14516 z m 5.29032,0 c 0,19.249582 15.60543,34.85484 34.85376,34.85484 19.25018,0 34.85592,-15.604947 34.85592,-34.85484 0,-19.249893 -15.60574,-34.854844 -34.85592,-34.854844 -19.24833,0 -34.85376,15.605262 -34.85376,34.854844 z m -275,0 c 0,22.171712 -17.97436,40.14516 -40.14624,40.14516 -22.17008,0 -40.14408,-17.973806 -40.14408,-40.14516 0,-22.171354 17.974,-40.145156 40.14408,-40.145156 22.17188,0 40.14624,17.973444 40.14624,40.145156 z m -5.29032,0 c 0,-19.249893 -15.60574,-34.854844 -34.85592,-34.854844 -19.24833,0 -34.85376,15.605262 -34.85376,34.854844 0,19.249582 15.60543,34.85484 34.85376,34.85484 19.25018,0 34.85592,-15.604947 34.85592,-34.85484 z m 238.29032,0 c 0,22.155593 -17.51004,40.14516 -39.14411,40.14516 -21.63582,0 -39.14621,-17.98921 -39.14621,-40.14516 0,-22.15595 17.51039,-40.145156 39.14621,-40.145156 21.63407,0 39.14411,17.989563 39.14411,40.145156 z m -5.29032,0 c 0,-19.265344 -15.17394,-34.854844 -33.85379,-34.854844 -18.68165,0 -33.85589,15.589188 -33.85589,34.854844 0,19.265656 15.17424,34.85484 33.85589,34.85484 18.67985,0 33.85379,-15.589496 33.85379,-34.85484 z m 237.29032,0 c 0,22.155593 -17.51004,40.14516 -39.14411,40.14516 -21.63582,0 -39.14621,-17.98921 -39.14621,-40.14516 0,-22.15595 17.51039,-40.145156 39.14621,-40.145156 21.63407,0 39.14411,17.989563 39.14411,40.145156 z m -5.29032,0 c 0,-19.265344 -15.17394,-34.854844 -33.85379,-34.854844 -18.68165,0 -33.85589,15.589188 -33.85589,34.854844 0,19.265656 15.17424,34.85484 33.85589,34.85484 18.67985,0 33.85379,-15.589496 33.85379,-34.85484 z m 122.29032,0 c 0,22.155593 -17.51004,40.14516 -39.14411,40.14516 -21.63582,0 -39.14621,-17.98921 -39.14621,-40.14516 0,-22.15595 17.51039,-40.145156 39.14621,-40.145156 21.63407,0 39.14411,17.989563 39.14411,40.145156 z m -5.29032,0 c 0,-19.265344 -15.17394,-34.854844 -33.85379,-34.854844 -18.68165,0 -33.85589,15.589188 -33.85589,34.854844 0,19.265656 15.17424,34.85484 33.85589,34.85484 18.67985,0 33.85379,-15.589496 33.85379,-34.85484 z"
       id="path851"
       fill="#000000"
       fill-rule="nonzero"
       sodipodi:nodetypes="ccsscccsssccsssscccsscccccccccsscccsssccsssscccsscccccccccsscccsssccsssscccsscccccccccsscccscsccsssscccsscccccccccscsccssssccsscccsscccccsccccsscccsssccsssscccsscccccccssssssssssssssssssssssssssssssssssssssssssssssssssssssssssss" />
  </g>
</svg>
